<svg xmlns="http://www.w3.org/2000/svg" xmlns:xlink="http://www.w3.org/1999/xlink" width="976" zoomAndPan="magnify" viewBox="0 0 732 731.999995" height="976" preserveAspectRatio="xMidYMid meet" version="1.0"><defs><g/><clipPath id="3e52822f60"><path d="M 94.203125 105.894531 L 588.453125 105.894531 L 588.453125 600.144531 L 94.203125 600.144531 Z M 94.203125 105.894531 " clip-rule="nonzero"/></clipPath><clipPath id="223bfad0c8"><path d="M 341.410156 105.894531 C 204.882812 105.894531 94.203125 216.574219 94.203125 353.101562 C 94.203125 489.632812 204.882812 600.308594 341.410156 600.308594 C 477.9375 600.308594 588.617188 489.632812 588.617188 353.101562 C 588.617188 216.574219 477.9375 105.894531 341.410156 105.894531 Z M 341.410156 105.894531 " clip-rule="nonzero"/></clipPath><clipPath id="c87159f4fb"><path d="M 137.457031 105.894531 L 631.707031 105.894531 L 631.707031 600.144531 L 137.457031 600.144531 Z M 137.457031 105.894531 " clip-rule="nonzero"/></clipPath><clipPath id="bab28e0283"><path d="M 384.664062 105.894531 C 248.136719 105.894531 137.457031 216.574219 137.457031 353.101562 C 137.457031 489.632812 248.136719 600.308594 384.664062 600.308594 C 521.195312 600.308594 631.871094 489.632812 631.871094 353.101562 C 631.871094 216.574219 521.195312 105.894531 384.664062 105.894531 Z M 384.664062 105.894531 " clip-rule="nonzero"/></clipPath><clipPath id="36e96ccd31"><path d="M 118.789062 105.894531 L 613.039062 105.894531 L 613.039062 600.144531 L 118.789062 600.144531 Z M 118.789062 105.894531 " clip-rule="nonzero"/></clipPath><clipPath id="7f87b8dda8"><path d="M 365.996094 105.894531 C 229.46875 105.894531 118.789062 216.574219 118.789062 353.101562 C 118.789062 489.632812 229.46875 600.308594 365.996094 600.308594 C 502.523438 600.308594 613.203125 489.632812 613.203125 353.101562 C 613.203125 216.574219 502.523438 105.894531 365.996094 105.894531 Z M 365.996094 105.894531 " clip-rule="nonzero"/></clipPath></defs><g clip-path="url(#3e52822f60)"><g clip-path="url(#223bfad0c8)"><path stroke-linecap="butt" transform="matrix(0.75, 0, 0, 0.75, 94.203185, 105.895856)" fill="none" stroke-linejoin="miter" d="M 329.609311 -0.00176589 C 147.572844 -0.00176589 -0.0000801752 147.571158 -0.0000801752 329.607625 C -0.0000801752 511.649301 147.572844 659.217016 329.609311 659.217016 C 511.645778 659.217016 659.218702 511.649301 659.218702 329.607625 C 659.218702 147.571158 511.645778 -0.00176589 329.609311 -0.00176589 Z M 329.609311 -0.00176589 " stroke="#ffffff" stroke-width="24" stroke-opacity="1" stroke-miterlimit="4"/></g></g><g clip-path="url(#c87159f4fb)"><g clip-path="url(#bab28e0283)"><path stroke-linecap="butt" transform="matrix(0.75, 0, 0, 0.75, 137.458033, 105.895856)" fill="none" stroke-linejoin="miter" d="M 329.608056 -0.00176589 C 147.571589 -0.00176589 -0.00133518 147.571158 -0.00133518 329.607625 C -0.00133518 511.649301 147.571589 659.217016 329.608056 659.217016 C 511.649731 659.217016 659.217447 511.649301 659.217447 329.607625 C 659.217447 147.571158 511.649731 -0.00176589 329.608056 -0.00176589 Z M 329.608056 -0.00176589 " stroke="#d4d7d6" stroke-width="24" stroke-opacity="1" stroke-miterlimit="4"/></g></g><g clip-path="url(#36e96ccd31)"><g clip-path="url(#7f87b8dda8)"><path stroke-linecap="butt" transform="matrix(0.75, 0, 0, 0.75, 118.788534, 105.895856)" fill="none" stroke-linejoin="miter" d="M 329.610095 -0.00176589 C 147.573628 -0.00176589 0.000704215 147.571158 0.000704215 329.607625 C 0.000704215 511.649301 147.573628 659.217016 329.610095 659.217016 C 511.646562 659.217016 659.219486 511.649301 659.219486 329.607625 C 659.219486 147.571158 511.646562 -0.00176589 329.610095 -0.00176589 Z M 329.610095 -0.00176589 " stroke="#7e7e7d" stroke-width="24" stroke-opacity="1" stroke-miterlimit="4"/></g></g><g fill="#ffffff" fill-opacity="1"><g transform="translate(222.895539, 408.504903)"><g><path d="M 38.203125 -162 L 60 -162 L 94.59375 0 L 73.203125 0 L 65.796875 -40.796875 L 32.796875 -40.796875 L 25 0 L 3.796875 0 Z M 62.796875 -57 L 49.203125 -130 L 35.796875 -57 Z M 62.796875 -57 "/></g></g></g><g fill="#ffffff" fill-opacity="1"><g transform="translate(316.492905, 408.504903)"><g><path d="M 12.59375 -162 L 35.203125 -162 L 35.203125 -85.59375 L 72.40625 -162 L 93.40625 -162 L 61.40625 -90.59375 L 98.59375 0 L 76.59375 0 L 45.59375 -76 L 35.203125 -57.203125 L 35.203125 0 L 12.59375 0 Z M 12.59375 -162 "/></g></g></g><g fill="#ffffff" fill-opacity="1"><g transform="translate(410.690261, 408.504903)"><g><path d="M 38.203125 -162 L 60 -162 L 94.59375 0 L 73.203125 0 L 65.796875 -40.796875 L 32.796875 -40.796875 L 25 0 L 3.796875 0 Z M 62.796875 -57 L 49.203125 -130 L 35.796875 -57 Z M 62.796875 -57 "/></g></g></g><path stroke-linecap="butt" transform="matrix(0.749991, 0.00362117, -0.00362117, 0.749991, 210.674157, 420.33)" fill="none" stroke-linejoin="miter" d="M -0.0014008 2.497537 L 414.232624 2.497523 " stroke="#7aa6dc" stroke-width="5" stroke-opacity="1" stroke-miterlimit="4"/><g fill="#d4d7d6" fill-opacity="1"><g transform="translate(239.895869, 450.575158)"><g><path d="M 14.277344 0 L 8.359375 -14.671875 L 6.09375 -14.671875 L 0.199219 0 L 2.222656 0 L 3.519531 -3.253906 L 10.953125 -3.253906 L 12.253906 0 Z M 10.40625 -4.882812 L 4.046875 -4.882812 L 7.238281 -13.042969 Z M 10.40625 -4.882812 "/></g></g></g><g fill="#d4d7d6" fill-opacity="1"><g transform="translate(267.877587, 450.575158)"><g><path d="M 0.835938 -2.066406 C 2.046875 -0.703125 3.914062 0.265625 6.46875 0.265625 C 10.425781 0.265625 11.878906 -1.914062 11.878906 -4.046875 C 11.878906 -7.128906 9.152344 -7.875 6.753906 -8.511719 C 4.882812 -9.019531 3.191406 -9.457031 3.191406 -10.933594 C 3.191406 -12.320312 4.445312 -13.265625 6.203125 -13.265625 C 7.808594 -13.265625 9.347656 -12.714844 10.449219 -11.503906 L 11.546875 -12.847656 C 10.316406 -14.144531 8.578125 -14.890625 6.335938 -14.890625 C 3.453125 -14.890625 1.296875 -13.242188 1.296875 -10.824219 C 1.296875 -7.941406 3.914062 -7.28125 6.269531 -6.664062 C 8.203125 -6.136719 9.988281 -5.652344 9.988281 -3.894531 C 9.988281 -2.773438 9.152344 -1.363281 6.535156 -1.363281 C 4.464844 -1.363281 2.882812 -2.375 1.914062 -3.453125 Z M 0.835938 -2.066406 "/></g></g></g><g fill="#d4d7d6" fill-opacity="1"><g transform="translate(294.583542, 450.575158)"><g><path d="M 0.835938 -2.066406 C 2.046875 -0.703125 3.914062 0.265625 6.46875 0.265625 C 10.425781 0.265625 11.878906 -1.914062 11.878906 -4.046875 C 11.878906 -7.128906 9.152344 -7.875 6.753906 -8.511719 C 4.882812 -9.019531 3.191406 -9.457031 3.191406 -10.933594 C 3.191406 -12.320312 4.445312 -13.265625 6.203125 -13.265625 C 7.808594 -13.265625 9.347656 -12.714844 10.449219 -11.503906 L 11.546875 -12.847656 C 10.316406 -14.144531 8.578125 -14.890625 6.335938 -14.890625 C 3.453125 -14.890625 1.296875 -13.242188 1.296875 -10.824219 C 1.296875 -7.941406 3.914062 -7.28125 6.269531 -6.664062 C 8.203125 -6.136719 9.988281 -5.652344 9.988281 -3.894531 C 9.988281 -2.773438 9.152344 -1.363281 6.535156 -1.363281 C 4.464844 -1.363281 2.882812 -2.375 1.914062 -3.453125 Z M 0.835938 -2.066406 "/></g></g></g><g fill="#d4d7d6" fill-opacity="1"><g transform="translate(321.289496, 450.575158)"><g><path d="M 1.121094 -7.324219 C 1.121094 -2.992188 4.046875 0.265625 8.402344 0.265625 C 12.738281 0.265625 15.683594 -2.992188 15.683594 -7.324219 C 15.683594 -11.660156 12.738281 -14.914062 8.402344 -14.914062 C 4.046875 -14.914062 1.121094 -11.660156 1.121094 -7.324219 Z M 13.792969 -7.324219 C 13.792969 -3.914062 11.679688 -1.363281 8.402344 -1.363281 C 5.101562 -1.363281 3.011719 -3.914062 3.011719 -7.324219 C 3.011719 -10.757812 5.101562 -13.285156 8.402344 -13.285156 C 11.679688 -13.285156 13.792969 -10.757812 13.792969 -7.324219 Z M 13.792969 -7.324219 "/></g></g></g><g fill="#d4d7d6" fill-opacity="1"><g transform="translate(351.932756, 450.575158)"><g><path d="M 8.601562 0.265625 C 11.261719 0.265625 13.023438 -0.96875 14.253906 -2.640625 L 12.691406 -3.496094 C 11.855469 -2.242188 10.339844 -1.363281 8.601562 -1.363281 C 5.457031 -1.363281 3.011719 -3.847656 3.011719 -7.324219 C 3.011719 -10.824219 5.457031 -13.285156 8.601562 -13.285156 C 10.339844 -13.285156 11.855469 -12.382812 12.691406 -11.152344 L 14.230469 -12.011719 C 13.066406 -13.660156 11.261719 -14.914062 8.601562 -14.914062 C 4.445312 -14.914062 1.121094 -11.835938 1.121094 -7.324219 C 1.121094 -2.816406 4.445312 0.265625 8.601562 0.265625 Z M 8.601562 0.265625 "/></g></g></g><g fill="#d4d7d6" fill-opacity="1"><g transform="translate(380.618366, 450.575158)"><g><path d="M 3.542969 0 L 3.542969 -14.671875 L 1.714844 -14.671875 L 1.714844 0 Z M 3.542969 0 "/></g></g></g><g fill="#d4d7d6" fill-opacity="1"><g transform="translate(399.691683, 450.575158)"><g><path d="M 14.277344 0 L 8.359375 -14.671875 L 6.09375 -14.671875 L 0.199219 0 L 2.222656 0 L 3.519531 -3.253906 L 10.953125 -3.253906 L 12.253906 0 Z M 10.40625 -4.882812 L 4.046875 -4.882812 L 7.238281 -13.042969 Z M 10.40625 -4.882812 "/></g></g></g><g fill="#d4d7d6" fill-opacity="1"><g transform="translate(426.507535, 450.575158)"><g><path d="M 7.171875 0 L 7.171875 -13.042969 L 11.835938 -13.042969 L 11.835938 -14.671875 L 0.703125 -14.671875 L 0.703125 -13.042969 L 5.34375 -13.042969 L 5.34375 0 Z M 7.171875 0 "/></g></g></g><g fill="#d4d7d6" fill-opacity="1"><g transform="translate(452.861572, 450.575158)"><g><path d="M 11.328125 0 L 11.328125 -1.628906 L 3.542969 -1.628906 L 3.542969 -6.6875 L 11.175781 -6.6875 L 11.175781 -8.316406 L 3.542969 -8.316406 L 3.542969 -13.042969 L 11.328125 -13.042969 L 11.328125 -14.671875 L 1.714844 -14.671875 L 1.714844 0 Z M 11.328125 0 "/></g></g></g><g fill="#d4d7d6" fill-opacity="1"><g transform="translate(479.193602, 450.575158)"><g><path d="M 0.835938 -2.066406 C 2.046875 -0.703125 3.914062 0.265625 6.46875 0.265625 C 10.425781 0.265625 11.878906 -1.914062 11.878906 -4.046875 C 11.878906 -7.128906 9.152344 -7.875 6.753906 -8.511719 C 4.882812 -9.019531 3.191406 -9.457031 3.191406 -10.933594 C 3.191406 -12.320312 4.445312 -13.265625 6.203125 -13.265625 C 7.808594 -13.265625 9.347656 -12.714844 10.449219 -11.503906 L 11.546875 -12.847656 C 10.316406 -14.144531 8.578125 -14.890625 6.335938 -14.890625 C 3.453125 -14.890625 1.296875 -13.242188 1.296875 -10.824219 C 1.296875 -7.941406 3.914062 -7.28125 6.269531 -6.664062 C 8.203125 -6.136719 9.988281 -5.652344 9.988281 -3.894531 C 9.988281 -2.773438 9.152344 -1.363281 6.535156 -1.363281 C 4.464844 -1.363281 2.882812 -2.375 1.914062 -3.453125 Z M 0.835938 -2.066406 "/></g></g></g></svg>