<?xml version="1.0" encoding="UTF-8"?>
<svg version="1.1" xmlns="http://www.w3.org/2000/svg" width="1024" height="1024" viewBox="0 0 1024 1024">
<circle cx="518" cy="510" r="305" fill="#FEFEFE"/>
<path d="M0 0 C1.60272263 -0.00551376 1.60272263 -0.00551376 3.23782349 -0.01113892 C24.43811975 -0.04920341 45.42221088 1.22879827 66.3125 4.9375 C67.03821198 5.06333466 67.76392395 5.18916931 68.5116272 5.31881714 C84.01745284 8.02660317 99.07466212 11.91692804 114.1875 16.3125 C115.66509941 16.72490958 117.14292076 17.136526 118.62109375 17.546875 C154.82947915 28.12202248 190.36111047 45.69060988 221.1875 67.3125 C221.72213867 67.68407227 222.25677734 68.05564453 222.80761719 68.43847656 C238.79940293 79.56992446 254.99500837 91.51178365 268.49853516 105.62597656 C270.2400613 107.36498532 272.05843264 108.94951756 273.93359375 110.54296875 C278.00246916 114.08300198 281.71528661 117.85541332 285.375 121.8125 C286.01864502 122.50537109 286.66229004 123.19824219 287.32543945 123.91210938 C341.90067386 182.97325505 374.84580418 255.62294348 386.4375 335.0625 C386.60080811 336.17987549 386.76411621 337.29725098 386.93237305 338.44848633 C388.94776507 352.89982421 389.396461 367.24695129 389.375 381.8125 C389.37373108 382.70110718 389.37246216 383.58971436 389.37115479 384.50524902 C389.13214931 472.41580816 356.34016124 558.97835727 295.1875 630.3125 C294.39859375 631.21355469 293.6096875 632.11460937 292.796875 633.04296875 C286.64231354 639.90395 280.17565295 646.4559442 273.6875 653 C272.3883667 654.31871094 272.3883667 654.31871094 271.06298828 655.6640625 C265.08443812 661.65048954 258.79893003 667.04101865 252.1875 672.3125 C250.89385908 673.38538467 249.60310945 674.46177348 248.31640625 675.54296875 C232.0108492 689.11966599 214.57556905 700.75861019 196.1875 711.3125 C195.3615332 711.79396484 194.53556641 712.27542969 193.68457031 712.77148438 C167.97043682 727.69584391 140.58505537 738.68775085 112.1875 747.3125 C111.1960498 747.61623535 110.20459961 747.9199707 109.18310547 748.23291016 C87.04259531 754.91850612 64.12249852 758.59623507 41.1875 761.3125 C40.45036774 761.40136978 39.71323547 761.49023956 38.95376587 761.58180237 C32.31104473 762.31869813 25.73826087 762.47354129 19.05859375 762.48046875 C17.91125259 762.48379715 16.76391144 762.48712555 15.58180237 762.49055481 C13.15715939 762.4955962 10.73250954 762.497964 8.30786133 762.49780273 C4.68753825 762.49996269 1.06753387 762.51807485 -2.55273438 762.53710938 C-23.2029696 762.58852638 -43.70155937 761.62010647 -64.0625 758 C-65.32570068 757.78053711 -66.58890137 757.56107422 -67.89038086 757.33496094 C-126.87573115 746.84967647 -182.06081557 722.5845405 -230.65625 687.7578125 C-232.75616961 686.28247655 -232.75616961 686.28247655 -234.95703125 685.25 C-237.153536 684.14018707 -238.5918355 682.61179258 -240.28515625 680.8515625 C-245.09929012 676.00049154 -250.37637516 671.64455102 -255.734375 667.4140625 C-262.25412817 662.09172591 -268.18424193 656.24288934 -274.11083984 650.27490234 C-275.93498747 648.44002731 -277.76959873 646.61610668 -279.60546875 644.79296875 C-286.46942597 637.93671304 -292.7885244 630.92509361 -298.8125 623.3125 C-299.74694128 622.21038496 -300.68832936 621.11406868 -301.640625 620.02734375 C-314.5052981 605.27446864 -325.02907533 589.23073736 -334.8125 572.3125 C-335.54915189 571.05319391 -336.28610243 569.79406245 -337.0234375 568.53515625 C-338.98789328 565.14588767 -340.90872739 561.73618883 -342.8125 558.3125 C-343.33142822 557.39331787 -343.33142822 557.39331787 -343.86083984 556.45556641 C-350.94103614 543.86113917 -356.50405635 530.73746054 -361.8125 517.3125 C-362.14523926 516.47428711 -362.47797852 515.63607422 -362.82080078 514.77246094 C-373.94471751 486.47079524 -381.19252647 456.49304729 -384.8125 426.3125 C-384.91546387 425.49233398 -385.01842773 424.67216797 -385.12451172 423.82714844 C-396.55851174 329.35665854 -368.49005734 229.76468294 -309.44335938 152.89990234 C-303.17182369 144.91590839 -296.75048043 137.1255265 -289.90625 129.625 C-288.12345614 127.65594409 -286.40131553 125.65359798 -284.6875 123.625 C-276.48854619 114.21636448 -267.39257126 105.30501659 -257.8125 97.3125 C-256.89855469 96.52101563 -255.98460937 95.72953125 -255.04296875 94.9140625 C-198.22530343 45.82956345 -128.86581909 14.62133788 -54.8125 3.3125 C-53.74161133 3.14588867 -52.67072266 2.97927734 -51.56738281 2.80761719 C-34.40810984 0.26608734 -17.31508938 0.02843097 0 0 Z M-43.8125 18.3125 C-45.67410003 18.52932201 -47.53602825 18.74336739 -49.3984375 18.953125 C-119.47161953 27.60413513 -185.79394793 58.21106226 -239.8125 103.3125 C-240.78832031 104.10140625 -241.76414062 104.8903125 -242.76953125 105.703125 C-251.0051257 112.45857785 -258.58208017 119.86697239 -266.125 127.375 C-266.89268204 128.13491745 -266.89268204 128.13491745 -267.6758728 128.91018677 C-274.52872621 135.70835694 -280.78994154 142.75485314 -286.8125 150.3125 C-287.83661459 151.52578128 -288.86586893 152.73476058 -289.90234375 153.9375 C-323.61513992 193.59926939 -346.37459836 242.34665851 -359.8125 292.3125 C-360.05838867 293.22322266 -360.30427734 294.13394531 -360.55761719 295.07226562 C-366.75390112 318.60223401 -370.5659735 343.97485634 -370.8125 368.3125 C-370.83151367 369.38677246 -370.85052734 370.46104492 -370.87011719 371.56787109 C-371.36043859 401.20016353 -368.76994956 429.35848761 -362.8125 458.3125 C-362.58578613 459.43398438 -362.35907227 460.55546875 -362.12548828 461.7109375 C-356.61985634 488.39492776 -346.89131923 513.94154017 -334.8125 538.3125 C-334.04268799 539.87073486 -334.04268799 539.87073486 -333.25732422 541.46044922 C-320.93343532 566.20945763 -306.23575256 588.88009071 -288.8125 610.3125 C-288.38291992 610.84794434 -287.95333984 611.38338867 -287.51074219 611.93505859 C-279.54644751 621.78720825 -270.61529145 630.71971144 -261.6875 639.6875 C-261.08680695 640.29346008 -260.48611389 640.89942017 -259.86721802 641.52374268 C-252.50541153 648.93535467 -245.0376761 655.85666403 -236.8125 662.3125 C-235.55753633 663.33696014 -234.3046501 664.36397515 -233.0546875 665.39453125 C-186.88319715 702.99333335 -131.63029566 728.01285303 -73.39599609 739.78955078 C-71.81679721 740.10921096 -70.23867978 740.43435372 -68.66259766 740.76904297 C-44.80840099 745.8257753 -20.47915252 746.59902204 3.8125 746.625 C4.85928925 746.62849457 5.90607849 746.63198914 6.98458862 746.6355896 C26.42826164 746.67161723 45.59960757 745.47511445 64.75 742 C65.98266602 741.77908691 67.21533203 741.55817383 68.48535156 741.33056641 C72.0568581 740.67769538 75.62303224 740.00268264 79.1875 739.3125 C80.57654541 739.04445557 80.57654541 739.04445557 81.99365234 738.77099609 C113.48869343 732.47922673 144.97537158 720.21959819 173.31445312 705.29394531 C175.28953228 704.25903679 177.27652568 703.24986034 179.265625 702.2421875 C195.21122658 694.08543455 210.19368708 684.4643789 224.44970703 673.6328125 C226.17783875 672.31984027 227.91449053 671.01881589 229.65234375 669.71875 C235.56235444 665.26768521 241.23893019 660.64017227 246.67578125 655.61328125 C248.04117338 654.36255658 249.41400846 653.11904588 250.82202148 651.91650391 C256.81655579 646.79255804 262.40562517 641.28050713 267.9777832 635.70751953 C269.61325882 634.07422552 271.25657708 632.4491153 272.90039062 630.82421875 C279.44949435 624.30998121 285.45657099 617.57094622 291.1875 610.3125 C292.18754027 609.10356243 293.1909482 607.89739448 294.19921875 606.6953125 C320.88082549 574.42043595 340.99746787 536.16644563 354.12646484 496.50341797 C355.10341464 493.56537522 356.11767778 490.64354225 357.14453125 487.72265625 C367.23978291 458.39309505 372.58725865 425.33122201 373.1875 394.3125 C373.22617188 392.81759033 373.22617188 392.81759033 373.265625 391.29248047 C373.90069445 363.9884632 371.32019237 337.12219554 366.1875 310.3125 C366.04763672 309.55356445 365.90777344 308.79462891 365.76367188 308.01269531 C356.87679943 260.50871291 335.57496753 214.83317535 308.1875 175.3125 C307.75195801 174.67731445 307.31641602 174.04212891 306.86767578 173.38769531 C300.80942824 164.56934652 294.22193026 156.36893404 287.1875 148.3125 C286.54941406 147.57386719 285.91132812 146.83523438 285.25390625 146.07421875 C283.5775234 144.14231334 281.88466396 142.22615868 280.1875 140.3125 C279.54941406 139.58160156 278.91132812 138.85070312 278.25390625 138.09765625 C269.22732727 127.87857509 259.61577722 118.10422276 249.1875 109.3125 C248.23359375 108.46945313 247.2796875 107.62640625 246.296875 106.7578125 C231.75257787 93.94969324 216.1812338 82.61321614 199.76171875 72.33789062 C198.1875 71.3125 198.1875 71.3125 196.15625 69.703125 C193.37535765 67.7388439 190.31853605 66.63456814 187.1875 65.3125 C185.21241187 64.19579486 183.25473748 63.04790965 181.3125 61.875 C164.02015118 51.78498906 145.67649309 43.93682474 126.83544922 37.26025391 C124.47291792 36.41465677 122.12761276 35.53607893 119.78515625 34.63671875 C103.32469749 28.40145755 85.99839241 24.92468146 68.75 21.625 C67.77756348 21.43478271 66.80512695 21.24456543 65.80322266 21.04858398 C45.53398062 17.32417162 25.30703352 15.82897609 4.71630859 15.97631836 C1.16090552 16.00017847 -2.39375419 15.99680865 -5.94921875 15.99023438 C-18.71821695 16.00605662 -31.16483265 16.56848309 -43.8125 18.3125 Z " fill="#040404" transform="translate(519.8125,128.6875)"/>
<path d="M0 0 C11.55 0 23.1 0 35 0 C36.56233028 1.56233028 36.1407528 3.08509895 36.15821838 5.25831604 C36.1680072 6.1768335 36.17779602 7.09535095 36.18788147 8.04170227 C36.19651466 9.56515511 36.19651466 9.56515511 36.20532227 11.11938477 C36.21522186 12.18266998 36.22512146 13.2459552 36.23532104 14.34146118 C36.26704335 17.87475314 36.29173573 21.40805858 36.31640625 24.94140625 C36.33696652 27.38378764 36.35796273 29.8261654 36.37937927 32.26853943 C36.4346957 38.71130439 36.48406263 45.15410196 36.53222656 51.59692383 C36.58237189 58.16555703 36.63809424 64.7341426 36.69335938 71.30273438 C36.80105794 84.20178199 36.90266597 97.10087023 37 110 C38.59987461 106.96793048 40.19848242 103.93519477 41.796875 100.90234375 C42.24659668 100.05007202 42.69631836 99.19780029 43.15966797 98.31970215 C46.53011272 91.9223269 49.80338557 85.48615371 53 79 C56.42873041 72.04286678 59.96003649 65.1488964 63.5859375 58.29296875 C69.71812896 46.69368364 75.6694833 35.00319188 81.625 23.3125 C82.73556495 21.13470844 83.84624142 18.95697374 84.95703125 16.77929688 C87.63950649 11.52028618 90.31970821 6.26012608 93 1 C104.88 1 116.76 1 129 1 C127.57154707 5.28535879 126.29890041 8.58542212 124.19921875 12.46484375 C123.64089355 13.50020264 123.08256836 14.53556152 122.50732422 15.60229492 C121.60651123 17.25322144 121.60651123 17.25322144 120.6875 18.9375 C120.06375488 20.08903564 119.44000977 21.24057129 118.79736328 22.42700195 C114.22604948 30.84780885 109.51466161 39.18630618 104.76538086 47.5078125 C100.40600977 55.18572908 96.28285496 62.97253576 92.27075195 70.8371582 C90.0277282 75.21455629 87.74406315 79.50619181 85.14453125 83.68359375 C84.7072168 84.39845947 84.26990234 85.1133252 83.81933594 85.84985352 C83.01429891 87.14701399 82.1847542 88.42946942 81.32519531 89.69116211 C79.82736 92.12190168 78.81717153 94.10139782 79.40086365 96.97024536 C79.65972855 97.67503021 79.91859344 98.37981506 80.18530273 99.10595703 C80.47239609 99.90035187 80.75948944 100.6947467 81.05528259 101.51321411 C81.36703934 102.33385345 81.67879608 103.1544928 82 104 C82.29044693 104.77753632 82.58089386 105.55507263 82.88014221 106.35617065 C83.83116595 108.86891219 84.80361289 111.37249705 85.78125 113.875 C86.32988457 115.2871579 86.32988457 115.2871579 86.88960266 116.72784424 C87.67875243 118.75826547 88.46888855 120.78830358 89.25991821 122.81799316 C90.52383309 126.06115487 91.7850695 129.30534727 93.0456543 132.54980469 C95.25618463 138.23817498 97.46883879 143.92571639 99.68206787 149.61303711 C103.39590648 159.15725664 107.10627605 168.70282095 110.8125 178.25 C111.20466705 179.26005096 111.59683411 180.27010193 112.00088501 181.3107605 C119.44728968 200.49786156 126.76338022 219.7328815 134 239 C135.60532234 234.47239317 136.75196804 229.92874264 137.734375 225.234375 C137.97194267 224.12145584 137.97194267 224.12145584 138.21430969 222.98605347 C138.5530289 221.39864843 138.89033664 219.81094166 139.22634888 218.22296143 C140.11537734 214.02449224 141.01647493 209.82862007 141.91796875 205.6328125 C142.0971434 204.79829559 142.27631805 203.96377869 142.46092224 203.10397339 C144.1575396 195.22458945 145.95491157 187.37042101 147.78686523 179.52148438 C149.67254236 171.44055245 151.49831538 163.34725755 153.3125 155.25 C156.13188124 142.68720374 159.08889736 130.16008807 162.0791626 117.63699341 C164.89048486 105.84848312 167.56308996 94.03737959 170.11813354 82.19085693 C172.21276326 72.48485506 174.44345429 62.82295087 176.79711914 53.17675781 C178.93245746 44.38981564 180.90239295 35.56990346 182.82055664 26.7331543 C184.70842324 18.0985957 186.85291043 9.58835826 189 1 C200.55 1 212.1 1 224 1 C227.668069 15.97171022 231.25491885 30.93284427 234.5 46 C237.00089832 57.610949 239.69017853 69.16197901 242.515625 80.69921875 C244.50826211 88.86723572 246.34300881 97.05640425 248.09082031 105.27978516 C249.71829694 112.86635026 251.529398 120.401334 253.375 127.9375 C255.88079547 138.17804554 258.2210375 148.4439369 260.4375 158.75 C262.80013631 169.72879948 265.32374634 180.65592921 268 191.5625 C270.56182037 202.01684125 273.0827053 212.4781995 275.47485352 222.97286987 C275.92331005 224.93782537 276.37661538 226.90167228 276.83007812 228.86547852 C277.23709961 230.66456665 277.23709961 230.66456665 277.65234375 232.5 C278.00800415 234.06234375 278.00800415 234.06234375 278.37084961 235.65625 C279.1418141 239.75370038 279.59160918 243.85289319 280 248 C274.74894558 248.02464928 269.49792455 248.04283568 264.24682617 248.05493164 C262.45905979 248.05997218 260.67129755 248.06680454 258.88354492 248.07543945 C256.31948832 248.0875173 253.75548603 248.09323094 251.19140625 248.09765625 C249.98515343 248.10539818 249.98515343 248.10539818 248.75453186 248.11329651 C246.83598285 248.11349215 244.91754632 248.06201983 243 248 C241.19526711 246.19526711 241.22595234 243.43661992 240.765625 241 C240.40235107 239.09686035 240.40235107 239.09686035 240.03173828 237.15527344 C239.77110477 235.77019247 239.51052651 234.3851011 239.25 233 C238.71263893 230.17154992 238.17273143 227.34358777 237.6328125 224.515625 C237.49684662 223.80150452 237.36088074 223.08738403 237.22079468 222.35162354 C235.70583367 214.41491429 234.10091364 206.49642255 232.47363281 198.58203125 C232.18117676 197.14150391 232.18117676 197.14150391 231.8828125 195.671875 C231.71152832 194.8375293 231.54024414 194.00318359 231.36376953 193.14355469 C231 191 231 191 231 188 C214.5 188 198 188 181 188 C180.67 191.63 180.34 195.26 180 199 C179.7278701 200.84945619 179.42905981 202.69573463 179.07617188 204.53149414 C178.81084656 205.93202782 178.81084656 205.93202782 178.54016113 207.3608551 C178.35159546 208.32587448 178.16302979 209.29089386 177.96875 210.28515625 C177.67478333 211.81951576 177.67478333 211.81951576 177.37487793 213.38487244 C176.96389306 215.52391859 176.55033166 217.66247121 176.13427734 219.80053711 C175.49583575 223.08391593 174.86646106 226.36894091 174.23828125 229.65429688 C173.83646473 231.73968499 173.43413953 233.82497517 173.03125 235.91015625 C172.74840149 237.38501244 172.74840149 237.38501244 172.45983887 238.8896637 C172.28295532 239.79498337 172.10607178 240.70030304 171.92382812 241.63305664 C171.76918091 242.43038712 171.61453369 243.22771759 171.4552002 244.04920959 C171 246 171 246 170 248 C146.24 248 122.48 248 98 248 C95.999375 242.26625 93.99875 236.5325 91.9375 230.625 C86.7822837 215.87667835 81.57501845 201.14786608 76.3125 186.4375 C76.00125183 185.56708069 75.69000366 184.69666138 75.36932373 183.79986572 C72.6723697 176.25783404 69.97352329 168.71648102 67.27148438 161.17626953 C65.94238166 157.46658215 64.61633552 153.75581578 63.29257202 150.04421997 C62.81021152 148.69359846 62.32669179 147.34339033 61.84194946 145.99362183 C61.18474087 144.16343934 60.53169847 142.33176236 59.87890625 140.5 C59.5135376 139.4790625 59.14816895 138.458125 58.77172852 137.40625 C58 135 58 135 58 133 C57.34 133 56.68 133 56 133 C55.72978027 133.87019775 55.45956055 134.74039551 55.18115234 135.63696289 C54.04257822 138.87876912 52.69396807 141.76779015 51.1015625 144.80859375 C50.53953125 145.88560547 49.9775 146.96261719 49.3984375 148.07226562 C48.52058594 149.73805664 48.52058594 149.73805664 47.625 151.4375 C46.75875 153.09749023 46.75875 153.09749023 45.875 154.79101562 C41.27876826 163.56897876 41.27876826 163.56897876 38.93313599 167.19570923 C36.75944117 171.01147298 36.42271622 174.52780753 36.45410156 178.86303711 C36.44376389 179.61508423 36.43342621 180.36713135 36.42277527 181.14196777 C36.39350354 183.60398238 36.39185149 186.06516933 36.390625 188.52734375 C36.37563271 190.24371392 36.35890336 191.96006971 36.34051514 193.67640686 C36.2969469 198.17592048 36.276866 202.67523952 36.26177979 207.17492676 C36.23871801 212.58333132 36.18630049 217.99152247 36.13883972 223.39975739 C36.07014678 231.59989379 36.03860006 239.79941813 36 248 C24.12 248 12.24 248 0 248 C0 166.16 0 84.32 0 0 Z " fill="#030303" transform="translate(462,344)"/>
<path d="M0 0 C1.19337479 -0.00101212 1.19337479 -0.00101212 2.41085815 -0.00204468 C29.22761905 0.03355176 55.47796635 2.78347122 81.75 8.25 C83.24394287 8.54849854 83.24394287 8.54849854 84.76806641 8.85302734 C113.76703332 14.73568868 142.29303433 25.10041468 168.75 38.25 C170.64128879 39.16538247 172.53322313 40.07943227 174.42578125 40.9921875 C183.65266811 45.4817801 192.71416958 50.22300124 201.625 55.3125 C202.44653564 55.77785156 203.26807129 56.24320313 204.11450195 56.72265625 C204.85788818 57.15578125 205.60127441 57.58890625 206.3671875 58.03515625 C207.02315918 58.41551025 207.67913086 58.79586426 208.35498047 59.18774414 C208.81533691 59.53828857 209.27569336 59.88883301 209.75 60.25 C209.75 60.91 209.75 61.57 209.75 62.25 C204.82231899 60.77842291 200.23376031 58.72862973 195.5559082 56.62036133 C164.94041381 42.82940756 133.77683162 33.38243129 100.75 27.25 C99.93063965 27.09692383 99.1112793 26.94384766 98.26708984 26.78613281 C76.54137528 22.81979723 54.60732235 21.86166034 32.5625 21.9375 C30.89729813 21.94023422 30.89729813 21.94023422 29.19845581 21.94302368 C11.86114741 21.99077201 -5.09101124 22.59280654 -22.25 25.25 C-23.39259277 25.42160645 -24.53518555 25.59321289 -25.71240234 25.77001953 C-63.47552813 31.58332779 -99.76389327 42.83807067 -134.25 59.25 C-135.18585938 59.69375977 -136.12171875 60.13751953 -137.0859375 60.59472656 C-170.56502283 76.59433292 -201.67657864 97.835427 -228.88671875 123.0703125 C-230.90759322 124.93419341 -232.9645976 126.72451207 -235.0625 128.5 C-238.97263797 131.90117373 -242.64163588 135.53254794 -246.3125 139.1875 C-246.89040283 139.76081055 -247.46830566 140.33412109 -248.0637207 140.92480469 C-318.09470349 211.20408907 -353.6549033 310.37098921 -353.49609375 408.47558594 C-353.39202135 429.74971897 -351.22899557 450.34752005 -347.25 471.25 C-347.03859375 472.36568359 -346.8271875 473.48136719 -346.609375 474.63085938 C-343.33061119 491.60608714 -338.93028862 507.92559264 -333.25 524.25 C-332.96543945 525.08257324 -332.68087891 525.91514648 -332.38769531 526.77294922 C-317.87794065 569.01072369 -295.44269404 608.18994346 -266.79101562 642.40039062 C-265.39010827 644.08183456 -264.01264421 645.77936188 -262.640625 647.484375 C-255.82665265 655.82378721 -248.27595421 663.43579473 -240.6875 671.0625 C-240.15660767 671.59865936 -239.62571533 672.13481873 -239.07873535 672.68722534 C-232.13681107 679.68232443 -224.97691562 686.11389745 -217.25 692.25 C-214.83897799 694.25309442 -212.4495963 696.2809907 -210.0625 698.3125 C-209.49208984 698.79654297 -208.92167969 699.28058594 -208.33398438 699.77929688 C-206.97192182 700.93533316 -205.61084195 702.09252712 -204.25 703.25 C-204.91 703.58 -205.57 703.91 -206.25 704.25 C-217.8980656 696.62779397 -229.40889626 688.99426474 -240.25 680.25 C-241.20003906 679.49203125 -242.15007812 678.7340625 -243.12890625 677.953125 C-248.45748621 673.65468776 -253.6152012 669.20510504 -258.66796875 664.5859375 C-260.09286287 663.29685024 -261.52413712 662.01432945 -262.98120117 660.76171875 C-268.62361663 655.90900109 -273.92863439 650.76384276 -279.1875 645.5 C-280.0748584 644.61183594 -280.9622168 643.72367188 -281.87646484 642.80859375 C-287.75466559 636.87500999 -293.13784938 630.85406397 -298.25 624.25 C-299.82965191 622.39269596 -301.41323257 620.53872867 -303 618.6875 C-318.70848072 599.8178699 -331.7620924 578.9072032 -343.25 557.25 C-343.76723633 556.27546875 -343.76723633 556.27546875 -344.29492188 555.28125 C-389.9202846 468.477441 -398.49070241 364.55351937 -370.0625 271 C-354.40174154 220.89930183 -328.813241 174.7657416 -294.25 135.25 C-293.46753906 134.35539063 -292.68507813 133.46078125 -291.87890625 132.5390625 C-287.51825712 127.62671946 -282.98492108 122.94720172 -278.3046875 118.33984375 C-276.49322174 116.49738333 -274.82934572 114.61740197 -273.1875 112.625 C-270.5636072 109.49348762 -267.67407024 106.89012021 -264.5625 104.25 C-262.36504496 102.34949834 -260.23984069 100.38535107 -258.12109375 98.39794922 C-231.53188816 73.5530094 -199.86150507 54.03369288 -167.22558594 38.21337891 C-165.25982013 37.25478871 -163.30573471 36.27493784 -161.3515625 35.29296875 C-149.05017182 29.20617869 -136.22931971 24.66735836 -123.25 20.25 C-122.39615723 19.95851074 -121.54231445 19.66702148 -120.66259766 19.36669922 C-81.89165406 6.27428713 -40.88533054 0.03165371 0 0 Z " fill="#848383" transform="translate(487.25,107.75)"/>
<path d="M0 0 C19.49343104 9.18487478 36.98753244 23.79986232 53 38 C54.37461834 39.18794178 55.74955738 40.3755127 57.125 41.5625 C64.88653809 48.40122252 72.47985227 55.39004898 79.8125 62.6875 C80.58436646 63.45247803 80.58436646 63.45247803 81.37182617 64.23291016 C85.44467021 68.32207953 89.24047258 72.62294526 93 77 C93.79603638 77.92002808 93.79603638 77.92002808 94.6081543 78.85864258 C113.89590074 101.29675083 130.35450589 126.27274646 143.04638672 153.01611328 C144.03651764 155.0759709 145.06408228 157.11397172 146.09765625 159.15234375 C160.07529488 187.12627859 169.17353307 217.36616685 175 248 C175.15065918 248.76425293 175.30131836 249.52850586 175.45654297 250.31591797 C182.53275446 286.46377339 183.00741653 323.90562038 177.8125 360.3125 C177.70163055 361.0909024 177.59076111 361.86930481 177.47653198 362.67129517 C171.99222915 400.78756273 161.47823638 437.55511697 144 472 C143.56123535 472.88413574 143.1224707 473.76827148 142.67041016 474.67919922 C130.48924661 499.17929211 115.68606749 522.10930192 98 543 C97.13939383 544.02978978 96.27888322 545.05965944 95.41845703 546.08959961 C88.67032041 554.1149673 81.60408948 561.71152712 74.16333008 569.09741211 C72.42745269 570.82248477 70.7026491 572.55811991 68.97851562 574.29492188 C62.29286141 580.98847433 55.42578982 587.127907 48 593 C46.30923041 594.41276285 44.62135645 595.82900452 42.9375 597.25 C-6.88785878 637.84322017 -67.14646447 662.70719009 -130 674 C-130.88445801 674.17096191 -131.76891602 674.34192383 -132.68017578 674.51806641 C-151.07412852 677.89681609 -169.72487112 678.37951847 -188.375 678.3125 C-189.46294861 678.31034485 -190.55089722 678.3081897 -191.67181396 678.30596924 C-259.98194891 678.08997572 -350.62033549 662.06714411 -402.50390625 613.6640625 C-402.99761719 613.11492188 -403.49132812 612.56578125 -404 612 C-399.54422494 613.34073471 -395.78678374 615.1369159 -391.75 617.4375 C-342.32637829 644.49408882 -281.96803243 657.51648482 -225.875 657.3125 C-224.83051697 657.31067719 -223.78603394 657.30885437 -222.7098999 657.30697632 C-195.30964935 657.22691658 -168.80710218 654.98285991 -142 649 C-141.16388184 648.82275391 -140.32776367 648.64550781 -139.46630859 648.46289062 C-83.25389543 636.48376032 -28.98291386 608.4160572 14.91943359 571.71582031 C16.41316938 570.48395278 17.92339817 569.27198218 19.44384766 568.07324219 C26.72513295 562.28375183 33.32264149 555.98571249 39.87109375 549.38964844 C41.62281575 547.62719762 43.38499428 545.87571432 45.1484375 544.125 C51.89121214 537.39038974 58.09514244 530.48931231 64 523 C64.9760206 521.82571566 65.95589905 520.65461546 66.94140625 519.48828125 C115.04779497 461.63254754 145.52192935 383.11322267 146.2734375 307.6875 C146.28592026 306.53209213 146.29840302 305.37668427 146.31126404 304.18626404 C146.53674158 278.30012063 145.98037219 253.42518636 141 228 C140.61050442 225.8349002 140.22240892 223.66954791 139.8359375 221.50390625 C129.9122947 168.23992475 105.7700165 115.34115038 72 73 C71.22269531 72.02289063 70.44539063 71.04578125 69.64453125 70.0390625 C67.45639575 67.33584377 65.2354599 64.66417823 63 62 C62.09356882 60.90640014 61.187328 59.81264249 60.28125 58.71875 C55.1150444 52.51307358 49.82477247 46.60357858 44 41 C41.18395426 38.20324225 38.39364934 35.38280487 35.6171875 32.546875 C29.25961162 26.07907174 22.91120992 19.83517949 15.78515625 14.203125 C12.4069411 11.53087627 9.10602459 8.77547223 5.8125 6 C5.23483887 5.51821289 4.65717773 5.03642578 4.06201172 4.54003906 C2.68861294 3.38265706 1.34143481 2.19428219 0 1 C0 0.67 0 0.34 0 0 Z " fill="#828282" transform="translate(712,197)"/>
<path d="M0 0 C48.28427219 6.77673996 100.50710544 36.00429949 138.26660156 65.64746094 C139.94194484 66.95470062 141.6341552 68.23525416 143.3359375 69.5078125 C161.42839711 83.08395888 179.66927274 98.57801012 194.375 115.8125 C196.21409932 117.9526908 198.06205209 120.06669379 199.984375 122.1328125 C207.25810547 129.96401866 213.66298304 138.40716218 220 147 C220.56912109 147.77134277 221.13824219 148.54268555 221.72460938 149.33740234 C252.3315917 191.15829881 275.17159325 239.51653266 285.453125 290.42553711 C286.07338412 293.34546232 286.78839185 296.23678574 287.49609375 299.13671875 C289.22753705 306.58852769 290.20270347 314.10386619 291.125 321.6875 C291.29499016 323.0371829 291.46556135 324.38679275 291.63671875 325.73632812 C292.10655995 329.48950844 292.56882584 333.24217383 293 337 C293.08923233 337.76197693 293.17846466 338.52395386 293.270401 339.309021 C293.9401649 345.40528973 294.16050249 351.42431579 294.16796875 357.5546875 C294.17129715 358.53631866 294.17462555 359.51794983 294.17805481 360.52932739 C294.18308754 362.59832293 294.18546427 364.66732648 294.18530273 366.73632812 C294.18747002 369.83217527 294.2056123 372.92765406 294.22460938 376.0234375 C294.27768537 394.23906341 292.53954332 411.96338999 289.6875 429.9375 C289.5795108 430.61999817 289.47152161 431.30249634 289.36026001 432.00567627 C286.02834388 452.91582082 280.56148496 472.8775086 274 493 C273.67580078 494.0101416 273.35160156 495.0202832 273.01757812 496.06103516 C259.68234858 537.13327384 237.41528312 575.76523796 210 609 C209.56945312 609.52674316 209.13890625 610.05348633 208.6953125 610.59619141 C195.73430506 626.40919567 181.63104864 641.79301772 166 655 C165.08089844 655.79664063 164.16179687 656.59328125 163.21484375 657.4140625 C127.51660122 688.235341 86.35424232 712.90459144 42 729 C40.47753662 729.56412598 40.47753662 729.56412598 38.92431641 730.13964844 C22.21715497 736.30948085 5.3666038 741.07270305 -12 745 C-12.8780127 745.20463867 -13.75602539 745.40927734 -14.66064453 745.62011719 C-41.32147378 751.74179828 -68.85777886 753.37819223 -96.125 753.375 C-97.12222076 753.37681274 -98.11944153 753.37862549 -99.1468811 753.38049316 C-112.54520627 753.3777266 -125.69585093 752.58092514 -139 751 C-139 750.67 -139 750.34 -139 750 C-137.7718457 749.98018066 -136.54369141 749.96036133 -135.27832031 749.93994141 C-130.61864392 749.86251198 -125.9592258 749.77403716 -121.29980469 749.68261719 C-119.30246159 749.6448832 -117.30506323 749.60994624 -115.30761719 749.578125 C-96.93524347 749.28209481 -78.9578778 748.02275933 -60.875 744.625 C-59.09089722 744.29737671 -59.09089722 744.29737671 -57.27075195 743.96313477 C-37.7093738 740.32445597 -18.5177746 735.70819671 0.375 729.4375 C1.01286438 729.22579163 1.65072876 729.01408325 2.30792236 728.79595947 C15.58116778 724.361684 28.34799508 718.98440537 41 713 C41.74846191 712.64728027 42.49692383 712.29456055 43.26806641 711.93115234 C47.90264027 709.72624862 52.45909789 707.3908855 57 705 C57.8146875 704.5767041 58.629375 704.1534082 59.46875 703.71728516 C83.75876593 691.04986324 106.03163639 675.59898524 127 658 C127.97066406 657.21496094 128.94132812 656.42992187 129.94140625 655.62109375 C138.18335296 648.86292572 145.76490161 641.45018452 153.3125 633.9375 C153.82428802 633.43088837 154.33607605 632.92427673 154.8633728 632.40231323 C161.71534073 625.60502148 167.98495628 618.56294713 174 611 C174.86337571 609.97243943 175.73178251 608.94903936 176.609375 607.93359375 C204.61580598 575.27645982 225.63571616 536.09063353 240.03173828 495.70654297 C240.90811591 493.25683989 241.80619669 490.816779 242.71484375 488.37890625 C249.60137693 469.72752244 253.51711014 450.53923118 257 431 C257.15742676 430.12279297 257.31485352 429.24558594 257.47705078 428.34179688 C258.43696464 422.90913894 259.27013616 417.46820453 260 412 C260.10441406 411.24090332 260.20882813 410.48180664 260.31640625 409.69970703 C268.94341936 343.94603272 255.95259765 273.31706778 228.13476562 213.44726562 C227.06279496 211.13542527 226.01988357 208.81272529 224.984375 206.484375 C212.64319804 179.06335402 195.35796621 152.95944829 176 130 C175.09062071 128.90408136 174.18178973 127.80770757 173.2734375 126.7109375 C168.66509892 121.17360753 163.98261662 115.81646559 158.80078125 110.80078125 C157.06436711 109.06436711 155.50686449 107.26221046 153.9375 105.375 C126.6568558 73.75425331 87.883462 48.7076013 51 30 C51 29.01 51 28.02 51 27 C50.2773999 26.72470459 49.5547998 26.44940918 48.81030273 26.16577148 C46.09960426 25.0413179 43.60190687 23.76716766 41.03515625 22.34765625 C39.60236328 21.56104614 39.60236328 21.56104614 38.140625 20.75854492 C37.12484375 20.1988501 36.1090625 19.63915527 35.0625 19.0625 C23.5166567 12.74725745 11.81514166 6.79315125 0 1 C0 0.67 0 0.34 0 0 Z " fill="#D6D6D6" transform="translate(646,141)"/>
<path d="M0 0 C1.17867142 -0.00095673 2.35734283 -0.00191345 3.57173157 -0.00289917 C6.04139256 -0.00357427 8.51105539 -0.00176723 10.98071289 0.00244141 C14.73913581 0.00781372 18.49744003 0.00246603 22.25585938 -0.00390625 C24.67057318 -0.00324563 27.08528691 -0.0019648 29.5 0 C30.6106633 -0.00202423 31.7213266 -0.00404846 32.86564636 -0.00613403 C39.32124863 0.01309177 45.64199407 0.34713505 52.05078125 1.1328125 C52.05078125 1.4628125 52.05078125 1.7928125 52.05078125 2.1328125 C46.65657907 3.02443473 41.42293482 3.30856175 35.9609375 3.37890625 C34.1881468 3.41188238 32.41536046 3.44509331 30.64257812 3.47851562 C27.89187989 3.52550905 25.14119419 3.56990956 22.39038086 3.60961914 C6.71730047 3.84620998 -8.30929924 5.16220131 -23.69921875 8.3203125 C-24.74795166 8.53461914 -25.79668457 8.74892578 -26.87719727 8.96972656 C-74.38821879 18.87909811 -121.11885778 35.75232369 -160.94921875 64.1328125 C-162.27911559 65.05458743 -163.60992021 65.97505339 -164.94140625 66.89453125 C-177.94821435 75.91975309 -190.28797949 85.41430963 -201.94921875 96.1328125 C-203.25773927 97.28318824 -204.57008578 98.4292306 -205.88671875 99.5703125 C-216.50152828 108.75818212 -216.50152828 108.75818212 -226.09765625 118.97265625 C-228.33948422 121.58812221 -230.70927603 124.06565415 -233.07421875 126.5703125 C-239.94579843 133.97706194 -245.93565707 142.02696253 -251.94921875 150.1328125 C-252.49368652 150.85774902 -253.0381543 151.58268555 -253.59912109 152.32958984 C-279.43731163 186.76771304 -299.32146522 226.67980818 -310.94921875 268.1328125 C-311.41086426 269.7717749 -311.41086426 269.7717749 -311.88183594 271.44384766 C-324.63663121 317.79160162 -327.77247188 367.55251476 -321.26171875 415.1328125 C-321.13965057 416.04078583 -321.0175824 416.94875916 -320.89181519 417.88424683 C-319.06605986 431.17723894 -316.29610088 444.14379319 -312.94921875 457.1328125 C-312.63895752 458.33744141 -312.32869629 459.54207031 -312.0090332 460.78320312 C-296.40614658 519.15475689 -266.5067393 570.67684563 -225.94921875 615.1328125 C-225.04113375 616.14535565 -224.13360703 617.15839968 -223.2265625 618.171875 C-218.71554289 623.18835934 -214.19128723 628.04412943 -209.0078125 632.3828125 C-206.59885416 634.43065565 -204.31734442 636.59433819 -202.01171875 638.7578125 C-194.72508259 645.39854186 -186.86233039 651.26468326 -178.94921875 657.1328125 C-178.04598877 657.80594482 -178.04598877 657.80594482 -177.12451172 658.49267578 C-157.35448889 673.16075724 -136.00023565 685.25367998 -113.94921875 696.1328125 C-117.67498797 697.49123554 -120.10819296 696.75524031 -123.83984375 695.61328125 C-125.01256836 695.25548584 -126.18529297 694.89769043 -127.39355469 694.52905273 C-129.2773584 693.93072632 -129.2773584 693.93072632 -131.19921875 693.3203125 C-132.16462585 693.01711594 -132.16462585 693.01711594 -133.14953613 692.70779419 C-146.08564685 688.63118612 -158.57749449 683.69610488 -170.94921875 678.1328125 C-172.2029126 677.56916992 -172.2029126 677.56916992 -173.48193359 676.99414062 C-180.83374054 673.66064804 -188.13299738 670.25148876 -195.08984375 666.140625 C-196.95979519 665.05916393 -196.95979519 665.05916393 -199.17578125 664.37890625 C-203.26508969 662.54159725 -206.55703419 659.82372319 -210.07421875 657.0703125 C-210.8312207 656.4832251 -211.58822266 655.8961377 -212.36816406 655.29125977 C-214.56803225 653.57949612 -216.76008776 651.858277 -218.94921875 650.1328125 C-219.97273437 649.3284375 -220.99625 648.5240625 -222.05078125 647.6953125 C-233.23159409 638.72427683 -243.43553839 628.74833158 -253.59780884 618.65945435 C-254.64883876 617.61647614 -255.70134363 616.57498174 -256.75546265 615.53512573 C-263.63409518 608.73972074 -269.93442833 601.72073698 -275.94921875 594.1328125 C-276.92556008 592.95879482 -277.90544243 591.78770218 -278.890625 590.62109375 C-313.71821017 548.7313933 -339.05395534 495.45698674 -349.94921875 442.1328125 C-350.19945801 440.91416504 -350.44969727 439.69551758 -350.70751953 438.43994141 C-360.45165311 390.42148655 -360.21109139 342.26282678 -350.94921875 294.1328125 C-350.7598877 293.14619629 -350.57055664 292.15958008 -350.37548828 291.14306641 C-340.79575016 242.62908486 -319.87916684 196.14231518 -290.94921875 156.1328125 C-290.21445312 155.11445313 -289.4796875 154.09609375 -288.72265625 153.046875 C-271.73739946 130.00869033 -252.18729988 106.76267249 -229.515625 89.14453125 C-227.13286283 87.27676486 -224.85820769 85.31785036 -222.58544922 83.31884766 C-163.62385658 31.85779892 -78.25987593 -0.14341609 0 0 Z " fill="#D6D6D6" transform="translate(506.94921875,144.8671875)"/>
<path d="M0 0 C11.88 0 23.76 0 36 0 C37.155 5.23875 38.31 10.4775 39.5 15.875 C42.24455266 28.27183239 45.06461941 40.64700072 48 53 C50.76695023 64.64554937 53.42560291 76.31038724 56 88 C58.70967737 100.30174049 61.52017455 112.57441998 64.43161011 124.82992554 C67.43798237 137.49354482 70.3015746 150.18660508 73.1378479 162.88928223 C75.53580663 173.61853333 78.00781266 184.32175681 80.625 195 C83.18485484 205.44957338 85.5788032 215.92746728 87.875 226.4375 C88.02656555 227.12948486 88.1781311 227.82146973 88.33428955 228.53442383 C89.6778204 234.6801709 90.96548375 240.79290252 92 247 C79.46 247 66.92 247 54 247 C46.83908115 211.33311573 46.83908115 211.33311573 44.5625 199.5625 C44.39911133 198.73145752 44.23572266 197.90041504 44.06738281 197.04418945 C43.40940708 193.60740197 43 190.51460974 43 187 C26.5 187 10 187 -7 187 C-7.33 189.97 -7.66 192.94 -8 196 C-8.28366777 197.79745638 -8.58804348 199.59191771 -8.92382812 201.38037109 C-9.10071167 202.33100433 -9.27759521 203.28163757 -9.45983887 204.26107788 C-9.64840454 205.25515656 -9.83697021 206.24923523 -10.03125 207.2734375 C-10.22722778 208.31899811 -10.42320557 209.36455872 -10.62512207 210.44180298 C-11.03706292 212.63549255 -11.45062097 214.828879 -11.86572266 217.02197266 C-12.5018865 220.38497276 -13.13217811 223.74903569 -13.76171875 227.11328125 C-14.16371748 229.25006494 -14.56604941 231.38678597 -14.96875 233.5234375 C-15.15731567 234.52966156 -15.34588135 235.53588562 -15.54016113 236.57260132 C-15.71704468 237.50432159 -15.89392822 238.43604187 -16.07617188 239.39599609 C-16.23081909 240.21490326 -16.38546631 241.03381042 -16.5447998 241.87753296 C-17 244 -17 244 -18 247 C-30.21 247 -42.42 247 -55 247 C-54.29020067 242.03140466 -53.4679213 237.20177729 -52.3984375 232.3125 C-52.24128769 231.58518677 -52.08413788 230.85787354 -51.92222595 230.10852051 C-51.40917383 227.73842078 -50.89229794 225.36917637 -50.375 223 C-50.01452739 221.3418055 -49.65409495 219.68360226 -49.29370117 218.02539062 C-45.00856109 198.34596428 -40.63893928 178.68544508 -35.90673828 159.1081543 C-33.89013258 150.68829738 -32.07501984 142.22509944 -30.24414062 133.76345825 C-27.94364976 123.14738986 -25.51360373 112.5675157 -23 102 C-20.21244184 90.27836815 -17.55279011 78.53655613 -15.00738525 66.76004028 C-12.61930044 55.71858994 -10.08993159 44.71711201 -7.49951172 33.72119141 C-4.86512983 22.50814275 -2.4134285 11.26266634 0 0 Z " fill="#030303" transform="translate(357,345)"/>
<path d="M0 0 C3.75198436 3.54023215 6.74246926 7.23420314 9.5625 11.5625 C9.98450684 12.20453369 10.40651367 12.84656738 10.84130859 13.50805664 C19.34715307 26.5762393 27.33639095 39.89350636 34.03027344 53.98388672 C35.02738933 56.05694387 36.06123572 58.10847982 37.1015625 60.16015625 C51.07774684 88.13120968 60.17415485 118.36943599 66 149 C66.15065918 149.76425293 66.30131836 150.52850586 66.45654297 151.31591797 C73.53275446 187.46377339 74.00741653 224.90562038 68.8125 261.3125 C68.70163055 262.0909024 68.59076111 262.86930481 68.47653198 263.67129517 C62.99222915 301.78756273 52.47823638 338.55511697 35 373 C34.56123535 373.88413574 34.1224707 374.76827148 33.67041016 375.67919922 C21.48924661 400.17929211 6.68606749 423.10930192 -11 444 C-11.86060617 445.02978978 -12.72111678 446.05965944 -13.58154297 447.08959961 C-20.32967959 455.1149673 -27.39591052 462.71152712 -34.83666992 470.09741211 C-36.57254731 471.82248477 -38.2973509 473.55811991 -40.02148438 475.29492188 C-46.70713859 481.98847433 -53.57421018 488.127907 -61 494 C-62.69076959 495.41276285 -64.37864355 496.82900452 -66.0625 498.25 C-115.88785878 538.84322017 -176.14646447 563.70719009 -239 575 C-239.88445801 575.17096191 -240.76891602 575.34192383 -241.68017578 575.51806641 C-260.07543252 578.89705562 -278.72388344 579.37477508 -297.375 579.3125 C-298.45729889 579.31134186 -299.53959778 579.31018372 -300.6546936 579.30899048 C-324.13295723 579.2595571 -346.99505339 577.911981 -370 573 C-370 572.67 -370 572.34 -370 572 C-368.70147095 572.10284302 -368.70147095 572.10284302 -367.37670898 572.20776367 C-334.74072167 574.53875656 -301.28094699 574.68995319 -269 569 C-267.97344299 568.82180725 -267.97344299 568.82180725 -266.92614746 568.64001465 C-195.49278664 556.18389655 -127.25268897 524.40088204 -73.58203125 475.3359375 C-71.50033201 473.45264529 -69.39263973 471.61624766 -67.265625 469.78515625 C-62.6283417 465.73546834 -58.27842269 461.4255139 -53.9375 457.0625 C-53.17373047 456.30259766 -52.40996094 455.54269531 -51.62304688 454.75976562 C-13.14697971 416.21787115 15.54829342 366.97921892 33.07910156 315.68505859 C33.86505642 313.39345428 34.67151819 311.11135203 35.4921875 308.83203125 C39.14996433 298.41531897 41.59419887 287.75899904 44 277 C44.18449707 276.1951416 44.36899414 275.3902832 44.55908203 274.56103516 C47.24044003 262.84133714 49.18613229 251.08664073 50.61962891 239.1496582 C50.90215696 236.81018807 51.20441252 234.47308289 51.51708984 232.13745117 C53.13330895 219.57063365 53.39599768 207.09713465 53.375 194.4375 C53.37545319 193.36950165 53.37590637 192.3015033 53.37637329 191.20114136 C53.35318789 172.50098111 51.93872829 154.45385861 49 136 C48.75591907 134.29081787 48.5146421 132.58123074 48.27734375 130.87109375 C47.65322218 126.55057702 46.87290814 122.27678805 46 118 C45.82839355 117.14825195 45.65678711 116.29650391 45.47998047 115.41894531 C37.86825623 78.70508352 24.60476282 35.6621474 2.21875 5.1171875 C0 2 0 2 0 0 Z " fill="#FBFBFB" transform="translate(821,296)"/>
<path d="M0 0 C3.2305765 0.01077594 6.46060155 -0.00001401 9.69116211 -0.01269531 C27.39935822 -0.02427149 45.12287638 0.80810977 62.53295898 4.26074219 C62.53295898 4.59074219 62.53295898 4.92074219 62.53295898 5.26074219 C61.89578445 5.26660843 61.25860992 5.27247467 60.60212708 5.27851868 C18.94040146 5.29231833 18.94040146 5.29231833 -22.46704102 9.26074219 C-23.60238281 9.43089844 -24.73772461 9.60105469 -25.9074707 9.77636719 C-63.67835565 15.59206572 -99.97342983 26.84524149 -134.46704102 43.26074219 C-135.40290039 43.70450195 -136.33875977 44.14826172 -137.30297852 44.60546875 C-170.78206384 60.60507511 -201.89361965 81.84616919 -229.10375977 107.08105469 C-231.12463423 108.9449356 -233.18163861 110.73525426 -235.27954102 112.51074219 C-239.18967899 115.91191592 -242.85867689 119.54329012 -246.52954102 123.19824219 C-247.10744385 123.77155273 -247.68534668 124.34486328 -248.28076172 124.93554688 C-318.3117445 195.21483126 -353.87194431 294.3817314 -353.71313477 392.48632812 C-353.60906237 413.76046116 -351.44603659 434.35826224 -347.46704102 455.26074219 C-347.25563477 456.37642578 -347.04422852 457.49210937 -346.82641602 458.64160156 C-343.5476522 475.61682932 -339.14732964 491.93633483 -333.46704102 508.26074219 C-333.18248047 509.09331543 -332.89791992 509.92588867 -332.60473633 510.78369141 C-326.2827883 529.18682924 -318.61316984 547.36884942 -309.02026367 564.31201172 C-308.11510029 565.93253949 -307.28252818 567.59328553 -306.46704102 569.26074219 C-306.79704102 569.92074219 -307.12704102 570.58074219 -307.46704102 571.26074219 C-314.12544813 561.11230042 -320.4631172 550.81045954 -326.46704102 540.26074219 C-327.03140869 539.27412598 -327.03140869 539.27412598 -327.60717773 538.26757812 C-335.05584791 525.1197709 -340.82542659 511.26071834 -346.46704102 497.26074219 C-346.81009277 496.41253906 -347.15314453 495.56433594 -347.5065918 494.69042969 C-359.4515047 464.78751848 -366.05313749 433.20154223 -369.46704102 401.26074219 C-369.611698 399.99025024 -369.611698 399.99025024 -369.75927734 398.6940918 C-370.79366193 388.34932489 -370.66603227 377.9582486 -370.65454102 367.57324219 C-370.65393677 366.57007965 -370.65333252 365.56691711 -370.65270996 364.53335571 C-370.61427146 341.04344664 -368.98338541 318.35297504 -364.46704102 295.26074219 C-364.2769043 294.27122559 -364.08676758 293.28170898 -363.89086914 292.26220703 C-358.23003911 263.55437472 -348.63256643 235.38018779 -335.46704102 209.26074219 C-334.99298828 208.30458008 -334.51893555 207.34841797 -334.03051758 206.36328125 C-312.78538066 163.66013029 -282.94408461 123.29156053 -246.46704102 92.26074219 C-245.49766602 91.40222656 -244.52829102 90.54371094 -243.52954102 89.65917969 C-222.3050765 70.94768167 -198.48242074 55.41471028 -173.46704102 42.26074219 C-172.20754639 41.59413574 -172.20754639 41.59413574 -170.92260742 40.9140625 C-157.13527456 33.66664714 -143.10932334 27.56323621 -128.46704102 22.26074219 C-127.53230957 21.91946289 -126.59757813 21.57818359 -125.63452148 21.2265625 C-84.9991133 6.56104651 -43.16472589 -0.17044314 0 0 Z " fill="#FBFBFB" transform="translate(487.467041015625,123.7392578125)"/>
<path d="M0 0 C0.99 0.495 0.99 0.495 2 1 C1.42258057 1.3309668 0.84516113 1.66193359 0.25024414 2.00292969 C-12.62973494 9.41685842 -25.07502702 17.12545688 -37 26 C-37.87857666 26.6511377 -37.87857666 26.6511377 -38.77490234 27.31542969 C-50.73547621 36.22508133 -61.99552717 45.94447566 -73 56 C-74.01659811 56.91182524 -75.03354295 57.82326402 -76.05078125 58.734375 C-87.72119893 69.25751932 -98.26660495 80.66056692 -108 93 C-109.05726875 94.31512259 -110.11456231 95.63022523 -111.171875 96.9453125 C-141.85446174 135.414456 -165.3078679 179.71336821 -179 227 C-179.25587891 227.85287598 -179.51175781 228.70575195 -179.77539062 229.58447266 C-199.49248818 295.81145791 -199.04168511 373.10200941 -178 439 C-177.69900391 439.96679688 -177.39800781 440.93359375 -177.08789062 441.9296875 C-165.49840549 478.9622396 -149.28558644 514.15201651 -127 546 C-126.30269775 547.00063477 -126.30269775 547.00063477 -125.59130859 548.02148438 C-118.248253 558.51619517 -110.5051876 568.4269528 -102 578 C-100.77006314 579.41599804 -99.54076621 580.83255256 -98.3125 582.25 C-97.20937139 583.50091618 -96.10517689 584.75089309 -95 586 C-94.36320312 586.72960937 -93.72640625 587.45921875 -93.0703125 588.2109375 C-80.26614725 602.70356411 -66.38797423 615.34173294 -51 627 C-54 628 -54 628 -56.80078125 626.8515625 C-60.15980356 624.90751296 -63.13149873 622.76665317 -66.1875 620.375 C-67.03441406 619.71250244 -67.03441406 619.71250244 -67.8984375 619.03662109 C-69.6041193 617.69746923 -71.30270869 616.34976272 -73 615 C-73.93457031 614.26265625 -74.86914062 613.5253125 -75.83203125 612.765625 C-87.10383687 603.7217751 -97.40443794 593.69680942 -107.64859009 583.52664185 C-108.69962001 582.48366364 -109.75212488 581.44216924 -110.8062439 580.40231323 C-117.68487643 573.60690824 -123.98520958 566.58792448 -130 559 C-130.97634133 557.82598232 -131.95622368 556.65488968 -132.94140625 555.48828125 C-167.76899142 513.5985808 -193.10473659 460.32417424 -204 407 C-204.25023926 405.78135254 -204.50047852 404.56270508 -204.75830078 403.30712891 C-214.50243436 355.28867405 -214.26187264 307.13001428 -205 259 C-204.81066895 258.01338379 -204.62133789 257.02676758 -204.42626953 256.01025391 C-194.84653141 207.49627236 -173.92994809 161.00950268 -145 121 C-144.26523438 119.98164063 -143.53046875 118.96328125 -142.7734375 117.9140625 C-125.78818071 94.87587783 -106.23808113 71.62985999 -83.56640625 54.01171875 C-81.18364408 52.14395236 -78.90898894 50.18503786 -76.63623047 48.18603516 C-57.34146438 31.34576925 -34.93600229 17.96348569 -12.3125 6.125 C-11.40973831 5.64897339 -11.40973831 5.64897339 -10.48873901 5.16333008 C-8.78520145 4.2686713 -7.07439006 3.38790408 -5.36328125 2.5078125 C-4.37626221 1.99879395 -3.38924316 1.48977539 -2.37231445 0.96533203 C-1.58945068 0.64677246 -0.80658691 0.32821289 0 0 Z " fill="#FBFBFB" transform="translate(361,180)"/>
<path d="M0 0 C6.14513188 2.20173174 10.8434314 6.07998803 16 10 C16.83942139 10.63784424 16.83942139 10.63784424 17.69580078 11.28857422 C24.84697302 16.74746905 31.72195512 22.37738581 38.3046875 28.515625 C40.39570174 30.44299465 42.51181064 32.30430837 44.66796875 34.15625 C49.80560806 38.63750703 54.61680246 43.43277809 59.4375 48.25 C60.32759766 49.12785156 61.21769531 50.00570312 62.13476562 50.91015625 C68.19726725 56.95937263 73.65712692 63.31343876 79 70 C80.55950185 71.8150803 82.12133812 73.62816326 83.6875 75.4375 C106.98819449 103.42718874 126.07166682 136.94602092 139 171 C139.36287109 171.94762207 139.72574219 172.89524414 140.09960938 173.87158203 C162.39306279 232.56460615 168.99120309 295.96657305 159 358 C158.78480523 359.43129493 158.57031665 360.86269617 158.35644531 362.29418945 C156.72563727 372.93927758 154.32337426 383.21008677 151.375 393.5625 C151.15723907 394.33625977 150.93947815 395.11001953 150.71511841 395.90722656 C144.77280642 416.97211126 137.4430107 437.24463432 128 457 C127.39381836 458.29188232 127.39381836 458.29188232 126.77539062 459.60986328 C117.20920112 479.9250386 105.4864677 499.04841799 92 517 C91.21625 518.05703125 90.4325 519.1140625 89.625 520.203125 C85.07063344 526.2808107 80.27368914 532.12509803 75.3125 537.875 C74.79002686 538.48142334 74.26755371 539.08784668 73.72924805 539.71264648 C69.992861 543.99278559 66.05214428 548.01960177 62 552 C59.1891843 554.80200437 56.39350371 557.61702065 53.6171875 560.453125 C47.30072735 566.87998625 41.00442775 573.13164297 33.91015625 578.7109375 C31.71766498 580.43550111 29.56958703 582.18442857 27.43359375 583.9765625 C11.9941777 596.87299294 -4.68107812 607.80384356 -22 618 C-22.76135254 618.44988281 -23.52270508 618.89976562 -24.30712891 619.36328125 C-26.53148317 620.6706722 -28.76346938 621.96356972 -31 623.25 C-31.67699951 623.64541992 -32.35399902 624.04083984 -33.05151367 624.44824219 C-34.66667309 625.36234924 -36.32994169 626.19053296 -38 627 C-38.66 626.67 -39.32 626.34 -40 626 C-36.75755989 622.40812399 -33.05766417 620.07098372 -28.9375 617.625 C-15.00529204 609.12138718 -2.0477816 599.23435246 10.23095703 588.49804688 C11.58668475 587.35000033 12.96762427 586.23166907 14.35888672 585.12695312 C21.50810279 579.43451447 28.01151805 573.29799654 34.44384766 566.81689453 C36.12314428 565.12686758 37.81288969 563.44782236 39.50390625 561.76953125 C46.12703654 555.15445108 52.18552156 548.34460435 58 541 C58.86311168 539.97221764 59.73151639 538.9488093 60.609375 537.93359375 C88.61580598 505.27645982 109.63571616 466.09063353 124.03173828 425.70654297 C124.90811591 423.25683989 125.80619669 420.816779 126.71484375 418.37890625 C133.60137693 399.72752244 137.51711014 380.53923118 141 361 C141.15742676 360.12279297 141.31485352 359.24558594 141.47705078 358.34179688 C142.43696464 352.90913894 143.27013616 347.46820453 144 342 C144.10441406 341.24090332 144.20882812 340.48180664 144.31640625 339.69970703 C152.94341936 273.94603272 139.95259765 203.31706778 112.13476562 143.44726562 C111.06279496 141.13542527 110.01988357 138.81272529 108.984375 136.484375 C96.64319804 109.06335402 79.35796621 82.95944829 60 60 C59.09062071 58.90408136 58.18178973 57.80770757 57.2734375 56.7109375 C52.66509892 51.17360753 47.98261662 45.81646559 42.80078125 40.80078125 C41.06436711 39.06436711 39.50686449 37.26221046 37.9375 35.375 C29.55041271 25.65360337 19.47151626 17.23116824 9.65600586 8.99511719 C6.26436112 6.14059699 3.09192086 3.17812683 0 0 Z " fill="#FBFBFB" transform="translate(762,211)"/>
<path d="M0 0 C2.93213611 2.93213611 2.95642608 6.40636362 3.59375 10.359375 C3.74141815 11.23145599 3.8890863 12.10353699 4.04122925 13.00204468 C4.36387025 14.91033111 4.68303638 16.81920745 4.99920654 18.72857666 C5.85940837 23.91840861 6.74650594 29.10363511 7.6328125 34.2890625 C7.91350082 35.93544205 7.91350082 35.93544205 8.19985962 37.61508179 C10.8593801 53.13111145 13.78123532 68.59935488 16.67382812 84.07324219 C16.8803299 85.179711 17.08683167 86.28617981 17.29959106 87.42617798 C17.68286158 89.47847117 18.06725593 91.530555 18.45309448 93.58236694 C19.72375533 100.37797174 20.86286151 107.17716907 22 114 C8.14 114 -5.72 114 -20 114 C-18.87452471 103.87072243 -18.87452471 103.87072243 -18.125 99.71875 C-17.94904297 98.73712891 -17.77308594 97.75550781 -17.59179688 96.74414062 C-17.39650391 95.67357422 -17.20121094 94.60300781 -17 93.5 C-16.68385742 91.74719727 -16.68385742 91.74719727 -16.36132812 89.95898438 C-13.71370517 75.32738385 -11.01069393 60.70574399 -8.31860352 46.08227539 C-5.49366818 30.73059389 -2.71102489 15.37224385 0 0 Z " fill="#F9F9F8" transform="translate(374,395)"/>
<path d="M0 0 C0.66 0 1.32 0 2 0 C2.13257202 0.75642288 2.26514404 1.51284576 2.4017334 2.29219055 C4.09777332 11.96622266 5.79783837 21.63954333 7.5 31.3125 C7.63567886 32.08378613 7.77135773 32.85507225 7.91114807 33.64973068 C11.74153444 55.4207438 15.63154082 77.17758754 19.76367188 98.89379883 C19.99555206 100.1193045 19.99555206 100.1193045 20.2321167 101.36956787 C20.51448188 102.86040118 20.79915474 104.35080031 21.08673096 105.84063721 C21.61251204 108.61760589 22 111.16500539 22 114 C8.14 114 -5.72 114 -20 114 C-15.2408139 86.12476716 -15.2408139 86.12476716 -12.75 72.8125 C-10.41075422 60.29543163 -8.13171034 47.76773271 -5.86877441 35.23666382 C-5.45868783 32.96733334 -5.04780867 30.69814594 -4.6361084 28.42910767 C-4.05214321 25.20963094 -3.47103078 21.98965133 -2.890625 18.76953125 C-2.71478882 17.80281494 -2.53895264 16.83609863 -2.35778809 15.84008789 C-1.41162756 10.5703801 -0.61051085 5.31932952 0 0 Z " fill="#F8F8F8" transform="translate(667,395)"/>
<path d="M0 0 C158.4 0 316.8 0 480 0 C480 1.65 480 3.3 480 5 C321.6 5 163.2 5 0 5 C0 3.35 0 1.7 0 0 Z " fill="#86ABDA" transform="translate(280,609)"/>
<path d="M0 0 C2.5 1.8125 2.5 1.8125 4 5 C4.85116344 10.40691445 4.95662001 14.52158726 1.9375 19.1875 C-1.75093338 21.46334187 -3.73696737 21.69758716 -8 21 C-10.90717073 18.78136971 -11.83981643 17.48055071 -13 14 C-13.34578461 8.64033849 -13.45162946 5.38091432 -10 1 C-6.77183041 -0.61408479 -3.49069516 -0.57258438 0 0 Z " fill="#F2F2F2" transform="translate(469,625)"/>
<path d="M0 0 C1.32 0 2.64 0 4 0 C5.17495143 2.93425371 6.33850852 5.87289513 7.5 8.8125 C7.83386719 9.64587891 8.16773438 10.47925781 8.51171875 11.33789062 C8.82753906 12.14033203 9.14335937 12.94277344 9.46875 13.76953125 C9.90864258 14.87711792 9.90864258 14.87711792 10.35742188 16.00708008 C11 18 11 18 11 21 C10.01 21 9.02 21 8 21 C7.67 19.02 7.34 17.04 7 15 C2.545 15.495 2.545 15.495 -2 16 C-2.99 18.475 -2.99 18.475 -4 21 C-4.99 21 -5.98 21 -7 21 C-6.26951699 16.31196344 -4.63363115 12.09114445 -2.9375 7.6875 C-2.51500977 6.57665039 -2.51500977 6.57665039 -2.08398438 5.44335938 C-1.39281425 3.62757345 -0.69688311 1.81360101 0 0 Z " fill="#201F20" transform="translate(344,625)"/>
<path d="M0 0 C0.99 0 1.98 0 3 0 C4.17495143 2.93425371 5.33850852 5.87289513 6.5 8.8125 C6.83386719 9.64587891 7.16773438 10.47925781 7.51171875 11.33789062 C7.82753906 12.14033203 8.14335938 12.94277344 8.46875 13.76953125 C8.90864258 14.87711792 8.90864258 14.87711792 9.35742188 16.00708008 C10 18 10 18 10 21 C9.01 20.67 8.02 20.34 7 20 C6.67 18.35 6.34 16.7 6 15 C1.545 15.495 1.545 15.495 -3 16 C-3.99 18.475 -3.99 18.475 -5 21 C-5.99 21 -6.98 21 -8 21 C-2.92307692 2.92307692 -2.92307692 2.92307692 0 0 Z " fill="#1C1C1C" transform="translate(574,625)"/>
<path d="M0 0 C2.5 1.8125 2.5 1.8125 4 5 C4.85116344 10.40691445 4.95662001 14.52158726 1.9375 19.1875 C-1.75093338 21.46334187 -3.73696737 21.69758716 -8 21 C-10.90717073 18.78136971 -11.83981643 17.48055071 -13 14 C-13.34578461 8.64033849 -13.45162946 5.38091432 -10 1 C-6.77183041 -0.61408479 -3.49069516 -0.57258438 0 0 Z M-7 2 C-9.74746544 4.63298771 -10.28598997 6.82133641 -10.4375 10.5 C-10.32081895 13.71403245 -10.09909507 14.84585212 -8.3125 17.625 C-6.08130745 19.21827178 -6.08130745 19.21827178 -3.4375 19 C-0.41084505 17.75829541 0.53477928 16.93044144 2 14 C2.29885865 10.65278312 2.21138915 7.89253199 1.4375 4.625 C-0.88860263 1.99549268 -3.64329111 2.2486451 -7 2 Z " fill="#121111" transform="translate(469,625)"/>
<path d="M0 0 C2.5 1.875 2.5 1.875 4 4 C4 4.66 4 5.32 4 6 C3.01 6 2.02 6 1 6 C0.34 5.01 -0.32 4.02 -1 3 C-3.58380177 2.74969023 -3.58380177 2.74969023 -6 3 C-6 4.32 -6 5.64 -6 7 C-5.44570313 7.26554688 -4.89140625 7.53109375 -4.3203125 7.8046875 C-3.59585938 8.15789063 -2.87140625 8.51109375 -2.125 8.875 C-1.04605469 9.39707031 -1.04605469 9.39707031 0.0546875 9.9296875 C2 11 2 11 4 13 C4.375 15.4375 4.375 15.4375 4 18 C1.63019586 20.7489728 0.12597587 20.98650259 -3.5 21.375 C-7.09887044 20.98940674 -8.56352232 20.63139589 -11 18 C-11 17.01 -11 16.02 -11 15 C-10.01 15 -9.02 15 -8 15 C-7.01 16.485 -7.01 16.485 -6 18 C-3.41619823 18.25030977 -3.41619823 18.25030977 -1 18 C-0.67 16.68 -0.34 15.36 0 14 C-0.71027344 13.70867188 -1.42054688 13.41734375 -2.15234375 13.1171875 C-9.68107138 9.75935386 -9.68107138 9.75935386 -11.3125 5.875 C-11 3 -11 3 -10.0625 1.125 C-6.81030318 -0.64892554 -3.56218056 -0.66656497 0 0 Z " fill="#1A1A1A" transform="translate(694,625)"/>
<path d="M0 0 C2 1.3125 2 1.3125 3 3 C3 3.99 3 4.98 3 6 C2.01 6 1.02 6 0 6 C-0.33 5.01 -0.66 4.02 -1 3 C-2.98 3 -4.96 3 -7 3 C-7 4.32 -7 5.64 -7 7 C-6.37351562 7.26554688 -5.74703125 7.53109375 -5.1015625 7.8046875 C-3.87566406 8.33449219 -3.87566406 8.33449219 -2.625 8.875 C-1.81289063 9.22304688 -1.00078125 9.57109375 -0.1640625 9.9296875 C2 11 2 11 4 13 C3.875 16 3.875 16 3 19 C0.57470087 21.05217619 -1.32186738 21.03448579 -4.5 21.375 C-8 21 -8 21 -10.4375 19.125 C-12 17 -12 17 -12 15 C-11.01 15 -10.02 15 -9 15 C-8.54625 15.495 -8.0925 15.99 -7.625 16.5 C-6.03775477 18.27889899 -6.03775477 18.27889899 -3.3125 18.1875 C-2.549375 18.125625 -1.78625 18.06375 -1 18 C-0.67 16.68 -0.34 15.36 0 14 C-0.71027344 13.65066406 -1.42054688 13.30132813 -2.15234375 12.94140625 C-3.07144531 12.48636719 -3.99054688 12.03132812 -4.9375 11.5625 C-5.85402344 11.11003906 -6.77054687 10.65757812 -7.71484375 10.19140625 C-10 9 -10 9 -11 8 C-10.6875 4.5 -10.6875 4.5 -10 1 C-6.82137696 -0.58931152 -3.46088698 -0.40341627 0 0 Z " fill="#282828" transform="translate(390,625)"/>
<path d="M0 0 C3.19201891 0.0343844 3.99861803 0.17556057 6.6875 2.125 C8.1875 4.3125 8.1875 4.3125 8.1875 7.3125 C7.1975 7.3125 6.2075 7.3125 5.1875 7.3125 C4.5275 5.9925 3.8675 4.6725 3.1875 3.3125 C0.8775 3.3125 -1.4325 3.3125 -3.8125 3.3125 C-3.86636629 5.43722576 -3.90523071 7.56233652 -3.9375 9.6875 C-3.96070313 10.87085938 -3.98390625 12.05421875 -4.0078125 13.2734375 C-4.14116229 16.42403817 -4.14116229 16.42403817 -1.8125 18.3125 C1.28676819 17.99051034 1.28676819 17.99051034 4.1875 17.3125 C4.5175 16.3225 4.8475 15.3325 5.1875 14.3125 C6.1775 14.3125 7.1675 14.3125 8.1875 14.3125 C7.80252006 16.54538365 7.29256663 18.14906302 6.0625 20.0625 C3.00776478 22.09899015 0.75567978 21.80466273 -2.8125 21.3125 C-5.82533634 19.28211029 -7.37976907 17.68914109 -8.48046875 14.1875 C-9.22670488 9.81352189 -9.08280617 7.81707151 -6.9375 3.8125 C-3.97373348 0.32571586 -3.97373348 0.32571586 0 0 Z " fill="#121211" transform="translate(505.8125,624.6875)"/>
<path d="M0 0 C2 1.3125 2 1.3125 3 3 C3 3.99 3 4.98 3 6 C2.01 6 1.02 6 0 6 C0 5.01 0 4.02 0 3 C-2.31 3 -4.62 3 -7 3 C-7 4.32 -7 5.64 -7 7 C-6.44570313 7.26554688 -5.89140625 7.53109375 -5.3203125 7.8046875 C-4.59585937 8.15789063 -3.87140625 8.51109375 -3.125 8.875 C-2.04605469 9.39707031 -2.04605469 9.39707031 -0.9453125 9.9296875 C1 11 1 11 3 13 C3.375 15.4375 3.375 15.4375 3 18 C0.64239439 20.73482251 -0.90068314 20.98758539 -4.5 21.4375 C-8 21 -8 21 -10.4375 19.125 C-12 17 -12 17 -12 15 C-11.01 15 -10.02 15 -9 15 C-8.01 16.485 -8.01 16.485 -7 18 C-3.41642759 18.25015873 -3.41642759 18.25015873 0 18 C-0.49547543 15.54368999 -0.49547543 15.54368999 -2 13 C-5.454817 11.26931729 -5.454817 11.26931729 -9 10 C-11 8 -11 8 -11.3125 5 C-11.209375 4.01 -11.10625 3.02 -11 2 C-7.20675288 -0.52883142 -4.45092058 -0.61200158 0 0 Z " fill="#171616" transform="translate(429,625)"/>
<path d="M0 0 C4.29 0 8.58 0 13 0 C13 0.66 13 1.32 13 2 C9.37 2 5.74 2 2 2 C2 4.31 2 6.62 2 9 C5.3 9 8.6 9 12 9 C12 9.66 12 10.32 12 11 C9.03 11 6.06 11 3 11 C3 13.31 3 15.62 3 18 C6.3 18 9.6 18 13 18 C13.33 18.99 13.66 19.98 14 21 C9.38 21 4.76 21 0 21 C0 14.07 0 7.14 0 0 Z " fill="#070707" transform="translate(646,625)"/>
<path d="M0 0 C15.84 0 31.68 0 48 0 C43.49507297 3.37869527 43.49507297 3.37869527 39.0625 3.36328125 C38.09376953 3.36392578 37.12503906 3.36457031 36.12695312 3.36523438 C35.09505859 3.34783203 34.06316406 3.33042969 33 3.3125 C31.94232422 3.30412109 30.88464844 3.29574219 29.79492188 3.28710938 C19.79359239 3.13747847 9.92008311 2.22903685 0 1 C0 0.67 0 0.34 0 0 Z " fill="#C4C4C4" transform="translate(507,891)"/>
<path d="M0 0 C0.94617188 0.06566162 1.89234375 0.13132324 2.8671875 0.19897461 C13.24156676 0.89595339 23.60676857 1.28822795 34 1.5625 C35.56511119 1.60586703 37.13021543 1.64948577 38.6953125 1.69335938 C42.4634683 1.79845763 46.23170006 1.90020936 50 2 C50 2.33 50 2.66 50 3 C46.37 3.33 42.74 3.66 39 4 C39 4.66 39 5.32 39 6 C30.38164872 5.57349456 21.8646149 4.68667235 13.3125 3.5625 C12.34425293 3.44028076 11.37600586 3.31806152 10.37841797 3.19213867 C9.46592285 3.06814697 8.55342773 2.94415527 7.61328125 2.81640625 C6.79641846 2.70756104 5.97955566 2.59871582 5.13793945 2.48657227 C3 2 3 2 0 0 Z " fill="#C7C6C6" transform="translate(451,868)"/>
<path d="M0 0 C4.85857807 1.44484679 9.03303785 3.49555507 13.4375 5.9375 C18.20678835 8.56866317 22.96020832 10.92555672 28 13 C28 14.32 28 15.64 28 17 C28.66 17 29.32 17 30 17 C29.67 17.66 29.34 18.32 29 19 C18.95704881 13.54663883 9.08815477 7.97173516 0 1 C0 0.67 0 0.34 0 0 Z " fill="#7F7F7D" transform="translate(308,809)"/>
<path d="M0 0 C4.95 0 9.9 0 15 0 C15 0.66 15 1.32 15 2 C13.02 2 11.04 2 9 2 C9 8.27 9 14.54 9 21 C8.01 21 7.02 21 6 21 C6 14.73 6 8.46 6 2 C4.02 2 2.04 2 0 2 C0 1.34 0 0.68 0 0 Z " fill="#181819" transform="translate(606,625)"/>
<path d="M0 0 C2.05123248 2.05123248 2.64147118 3.27005063 3.625 5.9375 C4.01558594 6.97197266 4.01558594 6.97197266 4.4140625 8.02734375 C5 10 5 10 5 13 C4.01 13 3.02 13 2 13 C1.67 11.02 1.34 9.04 1 7 C-3.455 7.495 -3.455 7.495 -8 8 C-8.66 9.65 -9.32 11.3 -10 13 C-10.99 13 -11.98 13 -13 13 C-12.43454163 9.04179141 -11.19097652 6.3340947 -9 3 C-8.67 3.66 -8.34 4.32 -8 5 C-5.69 5 -3.38 5 -1 5 C-0.67 3.35 -0.34 1.7 0 0 Z " fill="#1E1E1E" transform="translate(350,633)"/>
<path d="M0 0 C2 1.3125 2 1.3125 3 3 C3 3.99 3 4.98 3 6 C2.01 6 1.02 6 0 6 C-0.33 5.01 -0.66 4.02 -1 3 C-2.98 3 -4.96 3 -7 3 C-7 4.32 -7 5.64 -7 7 C-5.68 7.66 -4.36 8.32 -3 9 C-3 9.66 -3 10.32 -3 11 C-8.75 10.25 -8.75 10.25 -11 8 C-10.75 4.4375 -10.75 4.4375 -10 1 C-6.82137696 -0.58931152 -3.46088698 -0.40341627 0 0 Z " fill="#1B1B1B" transform="translate(390,625)"/>
<path d="M0 0 C3.19201891 0.0343844 3.99861803 0.17556057 6.6875 2.125 C8.1875 4.3125 8.1875 4.3125 8.1875 7.3125 C7.1975 7.3125 6.2075 7.3125 5.1875 7.3125 C4.5275 5.9925 3.8675 4.6725 3.1875 3.3125 C0.8775 3.3125 -1.4325 3.3125 -3.8125 3.3125 C-4.1425 6.6125 -4.4725 9.9125 -4.8125 13.3125 C-5.1425 13.3125 -5.4725 13.3125 -5.8125 13.3125 C-6.1425 11.6625 -6.4725 10.0125 -6.8125 8.3125 C-7.1425 9.9625 -7.4725 11.6125 -7.8125 13.3125 C-8.1425 13.3125 -8.4725 13.3125 -8.8125 13.3125 C-9.31727602 8.01235182 -8.02067314 5.49284682 -4.8125 1.3125 C-3.8125 0.3125 -3.8125 0.3125 0 0 Z " fill="#353434" transform="translate(505.8125,624.6875)"/>
<path d="M0 0 C0.99 0 1.98 0 3 0 C3 6.93 3 13.86 3 21 C2.01 21 1.02 21 0 21 C0 14.07 0 7.14 0 0 Z " fill="#1D1D1E" transform="translate(539,625)"/>
<path d="M0 0 C6.52576241 4.7681072 12.77352578 9.8494239 19 15 C18.01 15.495 18.01 15.495 17 16 C13.95175006 14.60701389 11.19076946 12.68513751 8.375 10.875 C7.57320313 10.38773438 6.77140625 9.90046875 5.9453125 9.3984375 C5.18734375 8.91375 4.429375 8.4290625 3.6484375 7.9296875 C2.94895996 7.48866699 2.24948242 7.04764648 1.52880859 6.59326172 C0 5 0 5 -0.22802734 2.31689453 C-0.15277832 1.55231934 -0.0775293 0.78774414 0 0 Z " fill="#7D7C7B" transform="translate(264,796)"/>
<path d="M0 0 C0.66 0.33 1.32 0.66 2 1 C-1.57841994 3.15410876 -5.16352988 5.29682565 -8.75 7.4375 C-9.76578125 8.04916016 -10.7815625 8.66082031 -11.828125 9.29101562 C-12.8078125 9.87431641 -13.7875 10.45761719 -14.796875 11.05859375 C-15.69760742 11.59798584 -16.59833984 12.13737793 -17.52636719 12.69311523 C-19.73164265 13.85821981 -21.56433878 14.54020681 -24 15 C-22.53356033 11.1335081 -20.71258946 9.98090325 -17.0625 8.16796875 C-15.59683594 7.43610352 -15.59683594 7.43610352 -14.1015625 6.68945312 C-13.07804687 6.19380859 -12.05453125 5.69816406 -11 5.1875 C-9.97648437 4.67251953 -8.95296875 4.15753906 -7.8984375 3.62695312 C-2.26938351 0.85327019 -2.26938351 0.85327019 0 0 Z " fill="#F1F1F1" transform="translate(361,180)"/>
<path d="M0 0 C0.33 0 0.66 0 1 0 C1 2.31 1 4.62 1 7 C4.3 7 7.6 7 11 7 C11.33 7.99 11.66 8.98 12 10 C7.38 10 2.76 10 -2 10 C-1.34 6.7 -0.68 3.4 0 0 Z " fill="#3A3A3A" transform="translate(648,636)"/>
<path d="M0 0 C3.19448727 0.0696979 3.95878065 0.25033549 6.625 2.25 C8.125 4.375 8.125 4.375 8.125 6.375 C7.135 6.375 6.145 6.375 5.125 6.375 C4.465 5.385 3.805 4.395 3.125 3.375 C0.02005874 3.05654449 -1.89226077 3.38075359 -4.875 4.375 C-5.535 5.365 -6.195 6.355 -6.875 7.375 C-6.05760147 2.19814266 -5.60795739 0.54270555 0 0 Z " fill="#1B1B1A" transform="translate(689.875,624.625)"/>
<path d="M0 0 C6.16356805 1.6658292 11.48259656 4.87805286 17 8 C16.01 9.485 16.01 9.485 15 11 C12.49720508 9.35828571 9.99772323 7.71189741 7.5 6.0625 C6.78457031 5.59392578 6.06914062 5.12535156 5.33203125 4.64257812 C3.53711592 3.45451512 1.7663474 2.23013479 0 1 C0 0.67 0 0.34 0 0 Z " fill="#777676" transform="translate(308,809)"/>
<path d="M0 0 C0.33 0 0.66 0 1 0 C1 2.31 1 4.62 1 7 C1.66 7 2.32 7 3 7 C7 11.47058824 7 11.47058824 7 14 C8.65 14 10.3 14 12 14 C12 14.33 12 14.66 12 15 C5.64096386 15.48915663 5.64096386 15.48915663 2.625 13.1875 C-0.55894783 8.90141639 -0.08369891 5.10563326 0 0 Z " fill="#252525" transform="translate(456,631)"/>
<path d="M0 0 C3 1 3 1 4.1875 3.375 C5 6 5 6 5 9 C4.01 8.67 3.02 8.34 2 8 C1.67 6.35 1.34 4.7 1 3 C-1.64 3 -4.28 3 -7 3 C-7 2.34 -7 1.68 -7 1 C-5.5459375 1.0309375 -5.5459375 1.0309375 -4.0625 1.0625 C-1.12534105 1.35618499 -1.12534105 1.35618499 0 0 Z " fill="#0E0E0E" transform="translate(579,637)"/>
<path d="M0 0 C0.66 0 1.32 0 2 0 C3.49821059 3.37097383 4 5.20442119 4 9 C2.02 9 0.04 9 -2 9 C-1.34 6.03 -0.68 3.06 0 0 Z " fill="#E6E5E6" transform="translate(345,629)"/>
<path d="M0 0 C2.12508244 3.18762365 2.5020163 5.26512223 3 9 C1.02 9 -0.96 9 -3 9 C-2.44271087 5.65626525 -1.64826111 2.96687001 0 0 Z " fill="#E4E3E4" transform="translate(575,629)"/>
<path d="M0 0 C0.33 0 0.66 0 1 0 C1.34833144 4.87664009 0.41685712 7.77050005 -2 12 C-2.99 12 -3.98 12 -5 12 C-4.54965877 10.37276701 -4.08944646 8.74826336 -3.625 7.125 C-3.36976563 6.22007812 -3.11453125 5.31515625 -2.8515625 4.3828125 C-2 2 -2 2 0 0 Z " fill="#1A1A1A" transform="translate(571,634)"/>
<path d="M0 0 C0.0825 0.78375 0.165 1.5675 0.25 2.375 C0.72806339 5.14749104 0.72806339 5.14749104 3.0625 6.3125 C3.701875 6.539375 4.34125 6.76625 5 7 C5 7.66 5 8.32 5 9 C-0.75 8.25 -0.75 8.25 -3 6 C-3.125 3.375 -3.125 3.375 -3 1 C-1 0 -1 0 0 0 Z " fill="#141313" transform="translate(382,627)"/>
<path d="M0 0 C0.99 0 1.98 0 3 0 C3.433125 0.474375 3.86625 0.94875 4.3125 1.4375 C6.6706906 3.62100982 8.87402561 3.65266951 12 4 C11.67 4.66 11.34 5.32 11 6 C4.63636364 6.48951049 4.63636364 6.48951049 1.5625 4.125 C0 2 0 2 0 0 Z " fill="#1B1B1B" transform="translate(378,640)"/>
<path d="M0 0 C2.18975773 3.28463659 2.99806563 6.20696275 4 10 C3.34 10 2.68 10 2 10 C1.67 10.66 1.34 11.32 1 12 C0.63762737 10.37681021 0.28534843 8.7513642 -0.0625 7.125 C-0.25972656 6.22007812 -0.45695313 5.31515625 -0.66015625 4.3828125 C-1 2 -1 2 0 0 Z " fill="#252525" transform="translate(577,627)"/>
<path d="M0 0 C4.24404412 3.88026891 7.10917547 8.04254346 10 13 C9.34 13.66 8.68 14.32 8 15 C6.85072616 13.06453884 5.70569358 11.12655872 4.5625 9.1875 C3.92441406 8.10855469 3.28632812 7.02960938 2.62890625 5.91796875 C1 3 1 3 0 0 Z " fill="#D3D1D1" transform="translate(821,296)"/>
<path d="M0 0 C0.99 0 1.98 0 3 0 C3.66 1.65 4.32 3.3 5 5 C6.98 5 8.96 5 11 5 C11 5.33 11 5.66 11 6 C4.67741935 6.36476427 4.67741935 6.36476427 1.5625 4.6875 C0 3 0 3 0 0 Z " fill="#222221" transform="translate(683,640)"/>
<path d="M0 0 C2.52394612 3.12488567 4.39701907 6.31314387 6 10 C5.67 10.66 5.34 11.32 5 12 C0.09846827 5.92560175 0.09846827 5.92560175 -0.3125 2.0625 C-0.209375 1.381875 -0.10625 0.70125 0 0 Z " fill="#D4D4D4" transform="translate(175,683)"/>
<path d="M0 0 C0.99 0 1.98 0 3 0 C2.4409112 3.24271506 1.5867822 4.93057424 -1 7 C-1.66 7 -2.32 7 -3 7 C-3 6.01 -3 5.02 -3 4 C-2.34 3.67 -1.68 3.34 -1 3 C-0.67 2.01 -0.34 1.02 0 0 Z " fill="#1E1E1F" transform="translate(511,639)"/>
<path d="M0 0 C4.75 0.75 4.75 0.75 7 3 C7 3.99 7 4.98 7 6 C6.01 6 5.02 6 4 6 C4 5.01 4 4.02 4 3 C2.68 2.34 1.36 1.68 0 1 C0 0.67 0 0.34 0 0 Z " fill="#1F1F1F" transform="translate(425,625)"/>
<path d="M0 0 C0.66 0.33 1.32 0.66 2 1 C-0.77280706 4.08089673 -3.06326356 5.68775452 -7 7 C-5.66667905 3.00003714 -3.5042173 2.16217663 0 0 Z " fill="#EDEDED" transform="translate(729,831)"/>
<path d="M0 0 C2.625 0.375 2.625 0.375 5 1 C1.25 4 1.25 4 -1 4 C-1.66 4.99 -2.32 5.98 -3 7 C-2.25 2.25 -2.25 2.25 0 0 Z " fill="#313030" transform="translate(686,625)"/>
<path d="M0 0 C0.66 0.33 1.32 0.66 2 1 C1.34 2.65 0.68 4.3 0 6 C-0.99 6 -1.98 6 -3 6 C-2.625 3.5625 -2.625 3.5625 -2 1 C-1.34 0.67 -0.68 0.34 0 0 Z " fill="#272727" transform="translate(340,640)"/>
<path d="M0 0 C0.5625 1.9375 0.5625 1.9375 1 4 C0 5 0 5 -1.84765625 5.09765625 C-3.8984375 5.06510417 -5.94921875 5.03255208 -8 5 C-8 4.67 -8 4.34 -8 4 C-5.36 3.34 -2.72 2.68 0 2 C0 1.34 0 0.68 0 0 Z " fill="#0F0F0E" transform="translate(696,640)"/>
<path d="M0 0 C0.66 0.66 1.32 1.32 2 2 C4.57061311 2.64767793 4.57061311 2.64767793 7 3 C7 3.33 7 3.66 7 4 C2.545 4.495 2.545 4.495 -2 5 C-1 1 -1 1 0 0 Z " fill="#090909" transform="translate(341,636)"/>
<path d="M0 0 C0.99 0.33 1.98 0.66 3 1 C3.33 2.65 3.66 4.3 4 6 C3.01 6 2.02 6 1 6 C0.67 4.02 0.34 2.04 0 0 Z " fill="#2A2A2A" transform="translate(510,626)"/>
</svg>
